<?xml version="1.0" encoding="utf-8"?>
<!-- Generator: Adobe Illustrator 22.0.1, SVG Export Plug-In . SVG Version: 6.00 Build 0)  -->
<svg version="1.1" id="Capa_1" xmlns="http://www.w3.org/2000/svg" xmlns:xlink="http://www.w3.org/1999/xlink" x="0px" y="0px"
	 viewBox="0 0 481 669.1" style="enable-background:new 0 0 481 669.1;" xml:space="preserve">
<style type="text/css">
	.st0{fill:#D8D8D8;}
	.st1{fill:#EFBE2C;}
	.st2{fill:#3A6698;}
	.st3{fill:#213B4D;}
</style>
<g>
	<g>
		<path class="st0" d="M258.8,185.4c-2.4-0.8-2.4-3-3.3-4.7c-0.2-0.5,0.3-1.2-0.4-1.7c-5.4-4-6-10.3-7.6-16
			c-1.4-4.8-2.1-5.3-6.7-4.3c-0.2-0.2-0.5-0.4-0.7-0.7c-1.8-4.6-1.7-4.5-6-2c-1.7,1-3.4,0-5.1-0.3c-1,1-2,1.9-3.5,2.4
			c-1.2,0.4-1.5,1.5-1.6,2.7c-0.2,1.8,0,3.6,0.3,5.3c0.3,1.7,0.1,3.3-1.1,4.7c-0.1,0.1-0.1,0.2-0.2,0.3c-3.2,3.7-2.6,8-2.1,12.3
			c1.3,0.2,1.4-0.8,1.7-1.4c0.5-1,1-2,1.9-2.7c1.2-0.9,2.5-0.5,2.8,1c0.4,2,0.2,4-0.9,5.8c-0.9,1.5-1.6,3.1-1.7,5
			c-0.1,1.7,0.1,2.9,2,3.7c2.3,0.9,2.5,1.9,1.4,4.1c-0.1,0.3-0.6,0.6-0.5,0.8c1.6,3.8-2.4,5.2-3.5,7.8c-0.5,1.1-1.6,1.4-2.8,1.3
			c-0.5,0-1.2-0.2-1.2,0.6c0,0.7,0.4,1,1,1.2c0.6,0.2,1.3,0.4,1.9,0.5c1.3,0.1,2.7,0,3.9,0.7c0.6,0.3,1.1,0.3,1.4-0.4
			c0.8-1.7,2.5-1.7,4-2c1.4-0.3,2.8-0.2,4.3-0.6c1.5-0.5,3.2,0.5,3.6,2.1c0.5,2,1.9,3.5,2.6,5.3c1.5,3.7,3.2,7.6,2.2,11.8
			c-0.2,0.8,0,0.9,0.6,1.1c2.6,0.9,4.9,2.4,7.3,3.7c1,0.5,1.8,1.3,2.7,2c1.6,1.3,2.8,1.4,4.4,0.2c1-0.7,2.1-1.3,3.3-1.6
			c1.2-0.3,2.5-0.7,3.2-1.6c1-1.3,2-2.1,3.5-2.3c-0.3-0.6-0.4-1.3-0.4-2.1c0-1,0-2,0-3c0-5.3-2-6.9-7.3-5.7c-2,0.5-3.7-0.9-4-3
			c-0.5-3-1.9-5.8-3-8.6c-0.5-1.2-0.8-2.6-1.5-3.8c-0.4-0.6-0.6-2.2,0.6-2.5c2-0.6,2.5-2.7,4.3-3.4c1.7-0.6,1.8-2.1,1.7-3.7
			c-0.1-2-1.4-3.9-0.1-6C260.6,186.8,259.5,185.6,258.8,185.4z"/>
		<path class="st1" d="M266.3,377.4c1.7-0.8,3,0,4.1,1.2c0.7,0.7,1.6,0.7,2.5,0.8c1.9,0.1,3.7-0.3,5.6-0.9c1.9-0.6,3.8-1,5.9-0.4
			c1.1,0.3,2.4,0.3,3.6,0.3c5.3,0.1,10.6-0.1,15.8-1.5c0.8-0.2,1.2-0.5,1.2-1.2c0-1,0-2,0-3c-0.1-16.4-0.1-32.9-0.2-49.3
			c0-3.9,0-7.8-0.1-11.7c0-2.3-0.7-2.7-2.8-2c-0.5,0.2-1.1,0.4-1.5,0.7c-3.5,2.7-7.8,4.3-11.2,7.1c-0.7,0.6-1.5,0.9-2.3,1.3
			c-4,1.9-8.4,2.9-11.8,6c-1.1,1-2.6,1.2-4.1,0.7c-1.5-0.5-2.7-0.3-4,0.7c-1.7,1.3-3.7,1.6-5.7,1.1c-2.1-0.5-3.9-0.1-5.8,0.7
			c-1.8,0.8-3.7,1.5-5.6,2c-3.4,0.9-4.4,0.2-5.4-3.3c-0.2-0.6-0.4-1.3-0.5-1.9c-0.3-1.4-1-2.5-2.3-3.1c-2-0.9-2.9-2.2-2.9-4.4
			c0-1.1-0.7-1.8-2.1-2c-0.2,1.1-0.4,2.2-0.5,3.3c-0.5,3.6-1.2,7.2-2.4,10.7c-0.8,2.5-1.8,2.7-3.9,1.3c-2.3-1.6-4.7-2.1-7.4-1.2
			c-2.1,0.7-3,0.3-4-1.7c-0.6-1.3-1-2.7-1.6-4c-0.7-1.7-4.3-2.5-5.7-1.2c-0.5,0.4-0.7,0.9-0.4,1.5c1.2,2.1,0,4.6,1.1,6.8
			c0.5,1,0,2.3-1,3c-3.5,2.6-6.9,5.8-11.9,4.3c-0.6-0.2-1.1-0.4-1.6,0c-1.5,1.6-3.7,2.5-3.8,5.2c-0.1,2.7-1.1,5-3,7.1
			c-1.4,1.6-2.6,3-5,2.3c-0.6-0.2-1.3-0.1-1.5,0.4c-0.6,2.5-2.7,4-3.1,6.8c-0.7,5.3-1.5,10.9-7.4,13.6c-0.1,0.1-0.1,0.4-0.2,0.6
			c0.5,0.8,1.4,0.4,2.1,0.6c1.9,0.5,1.8,2.4,2.7,3.5c1,1.2,3.3,0.4,3.9,2.5c0.6,2.3,1,4.6-0.8,6.6c-1.1,1.2-1.5,2.7-1.7,4.2
			c-0.6,5.9,1.2,11.4,2.4,17c0.1,0.3,0.3,0.7,0.5,0.9c3,2.5,5,6.3,9.7,6.2c2.3,0,4.4,1,4.8,3.7c0.1,0.9,0.7,1.3,1.6,1.3
			c0.9,0,1.7,0.4,2.4,1.1c1,1.1,2.2,0.8,3.4,0.5c3.2-1,6.3-2.5,9.8-1.8c0-3.7,0.1-7,0-10.4c-0.1-4.3-0.4-8.6-0.5-13
			c0-2.9,0.5-3.1,3.4-2.5c2.9,0.6,5.8,1.8,8.8,1.2c1.7-0.3,3.5-0.4,5.3-0.4c2.4,0,4.5-0.8,6.2-2.7c1-1.2,1.8-2.4,2.3-4
			c0.7-2.2,3.3-3.2,4.3-1.7c1.4,2.1,2.4,2,3.9,0.2c0.4-0.5,1.1-0.7,1.8-0.9c2.7-0.9,4.7-3.8,8-3.1c0.2,0,0.4-0.2,0.5-0.4
			c1.7-2.1,3.8-2.8,6.5-1.1C264.9,380,264.5,378.3,266.3,377.4z"/>
		<path class="st0" d="M209.8,167.5c0.7,2.7,1.4,5.4,2.2,8c0.7,2.4,1,4.8,0.7,7.2c-0.3,2.4-1.1,4.8-0.1,7.2c-1.7,3-0.6,5.7,0.6,8.5
			c0.4,0.9,0.1,2-0.1,3c-0.5,1.7-0.4,3.3,0.6,5.2c2.1-1.2,4.3-1.1,6.6-0.3c0.4,0.1,0.9,0.1,1.3,0.1c0.5,0,1-0.3,1-0.7
			c0.1-2.2,3.4-2.3,2.9-4.8c-0.2-1.1-0.6-2.1,0.1-3.2c0.4-0.6,0-1-0.6-1.3c-2.3-1-2.4-3-2.4-5c0-2.5,1-4.7,2.1-6.7
			c-0.1-0.6-0.3-0.6-0.5-0.4c-1,1-2,2.3-3.6,1.9c-1.9-0.5-1.7-2.4-2.1-3.8c-0.4-1.6,0.5-3.5-1.3-4.9c-0.5-0.4,0-1.3,0.4-1.8
			c1.8-1.9,2.3-4.5,4-6.5c1.1-1.3,0.6-3,0.4-4.5c-0.3-1.9-0.4-3.8,0.2-5.6c0.4-1.3,1-2.6,2.4-3c2-0.6,3.2-2,4.3-3.5
			c0.1-0.1,0.1-0.1,0.2-0.2c1.3-3.3,3.5-6.2,4.2-10c0.4-2.7,3.5-5,5.7-7c1.3-1.2,1.9-2.1,0.8-4c-1.9-3.3-0.2-6.7,0.7-9.9
			c0.6-2.1,1.4-4.1,1.2-6.4c0-0.4,0-0.8,0.1-1.2c-1.9-2-4.5-2.2-7.2-2.1c-3.3,0.1-4.3-1-3.1-4.1c0.2-0.4,0.4-0.8,0.6-1.2
			c1-2.5,0.2-3.9-2.4-4.6c-2.1-0.6-2.2-0.8-1.9-3c0.4-2.8-0.1-3.4-2.8-3.2c-3.1,0.3-6,1.4-9.4,2.3c3.9,2.7,2.9,5.6,0.9,8.5
			c-0.7,1-1.1,2.2-1.3,3.4c-0.5,2-1.7,3.1-3.6,3.5c-1.7,0.4-3,1.4-4.6,2c-3.5,1.4-4.8,4.4-5.8,7.7c-0.3,1.1,0.2,1.6,0.9,2.3
			c2.8,2.5,4.8,5.8,7.3,8.6c1.3,1.4,1.9,3.3,2,5.2c0.2,3-1.4,4.4-4.3,3.7c-0.2-0.1-0.4-0.1-0.6-0.2c-1.9-1-3.6-0.7-5.2,0.6
			c-0.4,0.3-1,0.5-1.5,0.7c0.3,1.1,1.3,1.1,2,1.6c1.6,1.2,2.7,2.7,3,4.6c0.2,1.3,0.5,2.3,1.7,3c1,0.7,1.3,1.8,1.5,2.9
			c0.3,1.5,0.4,3.1,1.7,4.2c0.5,0.4,0.7,1.2,0.3,1.8C208.7,163.9,209.4,165.7,209.8,167.5z"/>
		<path class="st0" d="M186,348.6c-0.4,0.6-0.4,1.3,0.2,1.8c0.6,0.5,1.4,0.5,1.8-0.1c1.5-2,3.7-3.6,3.5-6.5c-0.1-2.4,1-4.2,2.8-5.7
			c0.7-0.5,1.2-1.3,1.9-1.9c1-0.9,1.4-1.9,1.1-3.3c-0.2-1.1-0.3-2.2-0.4-3.3c-0.3-2.5,0.1-4.7,1.8-6.8c2.1-2.6,3.7-5.6,2.8-9.2
			c0-1.4,0-2.7,0-4c0-0.8-0.4-1.6-1.2-1.8c-1-0.3-1.3,0.7-1.5,1.4c-0.5,1.2-1.1,2.4-2,3.4c-1.8,2-2.3,4.2-1.2,6.7
			c0.4,0.9,0.6,1.9,0.3,2.9c-0.8,2.7-1.1,5.4-1,8.2c0.1,2-1,3.4-2.6,4.3c-2.8,1.5-3,1.7-2.5,4.7c0.4,2,0,3.7-1.2,5.3
			C187.7,346,186.8,347.3,186,348.6z"/>
		<path class="st0" d="M135.9,345.9c-1.4,3-1.3,6.5-3.4,9.3c-0.2,0.3-0.3,0.9-0.3,1.3c0.1,4.3-0.8,8.3-3,12.1
			c-0.5,0.9-0.6,2,0.1,2.8c1.2,1.3,2.4,2.7,4.1,3.3c1.4,0.5,2.3-1.1,3.4-1.6c0.3-0.1,0.6-0.3,0.9-0.5c2.7-1.8,6.1-2.8,7-6.5
			c0.1-0.3,0.4-0.6,0.7-0.7c1.8-0.7,2.2-2.3,2.9-3.8c0.4-1,0.9-2.5,2-2.4c2.5,0.1,5.2-0.1,7.4,0.8c1.6,0.6,2.6,0.7,3.9-0.2
			c0.5-0.4,1.1-0.7,1.7-1c1.1-0.5,2.2-0.1,3.1,0.6c0.9,0.7,0.8,1.7,0.6,2.7c-0.2,0.8-1.1,1.4-0.6,2.5c2.2-0.6,4.6-1.4,5.2-3.2
			c0.7-2,2.5-4.1,1.3-6.7c-0.7-1.6,0.3-3.1,2.2-3.5c4.8-0.9,5.8-5.1,7.2-8.6c1.3-3.4,0.3-7.2,1.7-11.3c-1.1,0.1-1.6,0.4-1.9,0.2
			c-2.3-1.3-4.2-0.7-6.3,0.5c-1.9,1.1-3.9,0.1-5.4-1.4c-1.7-1.6-0.8-3.3,0.1-4.8c0.9-1.6,2-3.2,1.7-4.9c-0.5-3.1,0.4-5.9,1.3-8.8
			c1.4-4.3-0.5-8.7,0.6-13.1c0.3-1,0.1-2.2,0.1-3.3c0-0.7-0.4-1.5-1.2-1.2c-1.7,0.5-3.3,0.1-4.9,0.1c-1.3,0-2.2,0.6-2.7,1.9
			c-1.5,3.7-2.5,4-6,2.4c-0.4-0.2-0.8-0.4-1.4-0.2c-0.1,0.3-0.2,0.8-0.5,1.1c-1.6,1.8-2.2,3.7-1.3,6.1c0.4,1.1-0.1,2.1-1,3
			c-1.3,1.3-1.7,3-1.3,4.8c0.8,4.4,0.5,4.9-3.3,7.1c-1.6,0.9-3.6,2-3.8,3.9c-0.4,4.2-2.2,7.9-3.2,11.8c-0.4,1.7-1.2,3-2.9,3.8
			C138.1,341.3,137,343.5,135.9,345.9z"/>
		<path class="st0" d="M174.8,370.1c1.8-1,2.6-2.5,3-4.5c0.5-2.9,1.7-5.7,1.9-8.8c0-0.5,0.3-1.2,0.7-1.5c1.5-1.2,1.8-3,2.7-4.5
			c0.7-1.1,0.7-2.2-0.3-3.7c-0.3,0.6-0.5,0.8-0.6,1.1c-1.4,2.3-2.9,4.5-6,4.8c-1,0.1-1.1,0.9-0.6,1.7c0.8,1.4,0.7,2.7-0.5,3.9
			c-0.5,0.5-0.6,1.2-0.7,1.8c-0.7,3-5.4,6.4-8.5,6.2c-0.5,0-1.1-0.1-1.6-0.4c-1.4-0.6-1.7-1.6-0.9-2.9c0.5-0.8,1.4-1.3,1.3-2.4
			c-0.4-0.1-0.7-0.2-0.9-0.1c-2.3,1.4-4.5,3.1-7.2,0.9c-0.1-0.1-0.5-0.1-0.6,0c-1.7,1.1-3.2,0.1-5-0.9c-1,2.5-1.6,5.2-4.2,6.5
			c-0.1,0.1-0.2,0.4-0.2,0.6c-0.1,1.4-1.2,2-2.1,2.8c-2.3,1.9-5,3.3-7.6,4.8c-1.7,1-2.3,2.2-1.9,4.1c0.2,1,0.3,2,0.6,2.9
			c1.2,3,2.3,6,3.4,9c0.2,0.6,0.5,1.2,0.6,1.9c0.2,1.7-0.4,2.3-2.1,2.7c-2.6,0.7-4.2-0.6-5.3-2.6c-1,0.3-1.3,1.1-1.8,1.7
			c-1.3,1.5-3,1.8-4.8,1.9c-1,0.1-1.8-1.2-2.8-0.4c-0.9,0.7-0.8,2-1.3,3c-0.3,0.5-0.4,1-0.6,1.5c-1.8,5.3-1.8,5.3-7.2,4.5
			c-2.2-0.3-2.9,0.4-2.3,2.5c0.4,1.4,1.1,2.7,0.3,4.1c-0.5,1.1,0.2,1.3,1,1.5c3.6,0.9,3.9,1.2,4.4,4.7c0.4,2.7,0.4,2.8,3.2,3.2
			c1.6,0.3,2.8,0.7,3,2.5c0.2,1.7,1.2,1.6,2.4,1.1c1.1-0.4,2.2-0.9,3.2-0.1c1.6,1.4,2.7,0.7,3.5-0.7c2.2-4.2,6.1-7,8.4-11.1
			c0.5-0.8,1.1-1.6,2-1.5c2.1,0.2,2.9-1.3,3.7-2.8c1.4-2.6,3.2-4.8,5.5-6.6c1.6-1.3,2.6-2.7,2.4-4.8c-0.2-1.9,0.5-3.1,2.3-3.9
			c2.2-1,3.7-2.8,4.6-5c0.5-1.3,1.1-2.4,2.5-3c1.2-0.5,1.7-1.4,1.6-2.6c-0.2-2.3,0.9-4.1,2.1-5.8
			C169.6,374.9,171.5,371.9,174.8,370.1z"/>
		<path class="st0" d="M145.8,321.6c1.2-1.2,2.4-2.3,3.9-3c0.7-0.3,1.4-0.7,2-1.2c0.5-0.5,0.6-1.2,0.4-1.8c-0.3-0.9-1-0.6-1.6-0.6
			c-1.5,0-3.1,0.1-4.6,0.1c-1.3,0-2.5,0-3.4,1.4c-0.7,1.1-2,1.6-3.4,1.7c-2.1,0.2-2.3,0.6-2,2.7c0.6,4.3,2.8,8,4.7,12.2
			c1.6-2.7,2.3-5.3,2.5-8C144.3,323.7,144.8,322.6,145.8,321.6z"/>
		<path class="st0" d="M320.6,384c1.3-0.6,2.7-0.9,4.1-2.5c-1.9-0.3-3,0.7-4.2,1.2c-1,0.5-2.1,1.2-3.2,0.7c-2.6-1.3-5.5-1.5-8.2-2.5
			c-3.2-1.2-6.3-2.5-9.9-0.9c-1.3,0.6-3,0.7-4.6,0.5c-2-0.3-4-0.2-6,0.1c-1.3,0.2-2.7,0.1-4-0.2c-2.1-0.5-4.1-0.3-6.2,0.3
			c-3.7,1-7.5,2-10.8-1.2c-0.8,0.8-0.4,1.6-0.4,2.4c-0.1,2.1-1,2.8-3,2.3c-0.5-0.1-1-0.4-1.5-0.6c-0.5-0.2-1.1-0.6-1.5-0.1
			c-1.6,1.8-3.6,2.4-6,2.3c-0.6,0-0.9,0.6-1.3,1c-0.6,0.7-1.2,1.3-2.2,1.4c-1.5,0.2-2.6,1-3.6,2.2c-1.3,1.5-2.8,1.4-4.4,0
			c-0.5-0.4-0.6-1.3-1.4-1.3c-0.5,0.2-0.5,0.7-0.6,1.1c-1.7,4.8-6.4,8-11,7.4c-1-0.1-2,0-3,0.2c-3.1,0.5-6.1,0.6-9.2-0.5
			c-2.1-0.7-2.6-0.2-2.6,1.9c0.1,3,0.3,6,0.4,9c0.2,5.5-0.1,11.1,0.8,16.6c0.1,1,0,1.9,0.8,2.8c2.4,2.3,4.3,5,5,8.4
			c0.1,0.6,0.4,1,0.9,1.4c2.3,1.9,4.3,4.2,6.4,6.3c2.4,2.5,4.9,4.6,8.5,2.1c0.3-0.2,0.6-0.2,1-0.4c0-0.6,0-1.1-0.1-1.6
			c-0.2-2.5,1.2-4.9,2.6-6.2c1.5-1.5,4.5-1.7,6.9-1c4.6,1.3,7.6,5,11.4,7.6c0.7,3.7,3.7,5.7,6,8.2c0.1,0.1,0.1,0.2,0.2,0.3
			c0.6,1.4,1.6,1.8,3.2,1.8c1.5,0,2.8-0.1,4-1c0.7-0.6,1.8-0.9,2.7-1.2c3.8-1.1,6.3-3.6,7.6-7.3c0.4-1.2,0.9-2,2.4-1.5
			c0.9,0.3,1.5,0,2.3-0.7c1.8-1.6,2-3,0.9-5.2c-1.1-2.1-0.8-3.3,1.1-4.6c1.6-1,2.2-2.1,1.8-3.8c-0.8-3.3,0.6-6.1,2.2-8.8
			c0.8-1.4,1.8-2.1,3.5-1.6c1.9,0.6,3.5,0,4.8-1.4c1.3-1.3,2.8-2.5,4.2-3.8c1-1,2.1-1.3,3.5-1.3c3.3-0.1,6.7-0.2,9.9-0.9
			c5.3-1.3,10.7-2.3,15.7-4.6c2.4-1.1,4-2.6,5.9-4.4c-1.9-0.3-3.8-0.1-5.6-0.4c-1.5-0.2-2.8-0.4-4.2,0.3c-1.6,0.8-3,0.5-4.3-0.7
			c-1-1-2.1-1.3-3.6-1c-3.3,0.6-4.6-0.4-5-3.7c-0.3-2.3-1.1-3.9-3.5-4.7c-2.1-0.7-2.4-2.2-1.1-3.9
			C316.8,386.4,318.5,384.9,320.6,384z"/>
		<path class="st0" d="M340.1,408.4c-1.6-0.6-2.8,0.2-4,1c-1.5,1-3.1,1.7-5,1.6c-0.6-0.1-1.3,0.2-1.9,0.4c-4.2,1.8-8.7,2.6-13.3,2.6
			c-1.9,0-3.6,1.1-5.6,0.6c-0.6-0.1-1,0.4-1.4,0.8c-1.3,1.2-2.7,2.3-4,3.6c-1.8,1.7-3.7,2.8-6.3,2.1c-0.7-0.2-1.4-0.1-1.7,0.6
			c-1.1,2.1-2.6,4.1-2,6.8c0.6,2.5,0.4,4.9-2.4,6.2c-1,0.5-1.1,1.3-0.6,2.2c0.2,0.3,0.3,0.6,0.4,0.9c1.5,3.8-0.1,7-4.2,7.8
			c-1.2,0.2-1.9,0.7-2.5,1.8c-2.1,3.4-4.8,6-8.9,6.9c-1.2,0.3-2.9,0.6-2.7,2.4c0.1,1.1,0.8,2.1,1,3.1c0.3,1.3,1,1.8,2.4,1.7
			c1.1-0.1,1.6,0.6,1.8,1.6c0.3,1.3,0.9,2.5,1.7,3.6c0.9,1.3,1.8,2.4,3.7,2.1c1.5-0.3,2.6,0.8,3.1,2.1c1.1,2.5,3.1,3.2,5.6,3.4
			c1.6,0.1,3.3,0.3,4.6,1.7c0.1,0.2,0.4,0.4,0.6,0.3c3.5-1.6,5.7,2.2,8.9,2.2c2,0,3.7,1.3,4.3,3.6c0.1,0.4,0.2,1.1,0.4,1.2
			c2.6,0.6,2.4,2.8,2.8,4.7c0.2,0.7,0.5,1.5,0.9,2.1c1.1,2.1,1.5,2.3,4,1.7c1.4-0.4,2.8-0.8,4.1-1.3c3.4-1.2,3.6-1.2,5,2.1
			c0.4,0.9,0.6,1.9,1.5,2.5c1,0.7,1.8,1.2,2.9,0.2c0.6-0.6,1.5-1,2.3-1.3c1.5-0.6,3.6,0.5,4.1,1.9c0.4,1.1-0.4,1.5-1.2,2
			c-2.2,1.2-2.3,1.6-1.8,3.8c0.6,2.6,0.7,5.3,0,7.9c-0.4,1.4-0.2,2.6,0.6,3.8c0.5,0.7,1.1,1.4,1.6,2.1c0.6,0.9,0.8,2.3,2,2.5
			c1.3,0.2,1.5-1.4,2.3-2.1c1.2-1,2.5-1.4,4-0.9c1.2,0.4,2.3,0.8,3.5,0.5c1.3-0.4,2.4,0.1,3,1.4c0.7,1.5,1.9,1.6,3.4,1.2
			c2.5-0.7,3.1-0.5,3.7,1.8c0.6,2.3,1.9,2.8,4,3.2c0.4,0.1,0.8,0.1,1.2,0.2c0.1-1.8,0.1-3.7,0-5.5c0-0.7-0.1-1.3-0.7-1.7
			c-2.5-1.7-3.8-4.6-6-6.7c-1.7-1.5-1.9-3.5-0.6-5.3c1.1-1.6,0.8-3.2-0.1-4.3c-1.7-1.9-3-4.1-4.9-5.8c-0.8-0.7-2-1.7-2.7-1.5
			c-2.8,0.9-3.2-1.4-4.4-2.8c-1.5-1.6-3.1-3.1-2.9-5.3c0.5-6.7,0.1-13.3,0.3-20c0-0.8,0-1.9,1-2.3c2.7-1.2,5.5-2.1,7.7-4.3
			c0.4-0.4,1.5-0.2,2.3,0c0.7,0.2,1.5,0.5,2-0.1c2.1-2.4,5.1-1.8,7.9-2.4c0.5,4,5,2.4,6.6,5c1.7-0.9,2.7-2.2,4.4-2.7
			c-0.8-1.7-1.7-3-1.3-4.6c0.9-3.1-0.8-5.4-1.8-8.1c-1.1-3-2.9-2.8-4.9-2.5c-4.2,0.6-8.3,0.7-12.3-0.7c-1.6-0.6-2.8-0.1-3.7,1.3
			v-0.7c-0.8-0.7-1-1.6-1-2.7c-0.1-5.2,0-10.5-0.4-15.7c0-0.4,0-0.7,0-1c-0.7-0.4-1.5-0.9-2.4-0.8c-2.2,0.3-3.6-0.8-4.7-2.5
			c-1.2-1.7-2.5-2.9-4.7-3.3c-2.3-0.4-2.7-2.8-1.2-5C338.4,410.5,339.8,410,340.1,408.4z"/>
		<path class="st0" d="M389.5,262.4c-2.1,0.4-4,0.2-5.6-0.6c-3.9-1.8-7.4-0.6-10.7,1.1c-2.1,1.1-4.3,1.5-6.2,1
			c-0.4,0.3-0.7,0.5-1.1,0.7c-1.8,1.1-3.6,1.8-5.7,1.5c-2.2-0.4-4.2,0.3-6,1.4c-1.3,0.8-2.6,1.6-4.1,2.1c-1,0.3-1.7,1-2,2.1
			c-0.2,0.8-0.8,1.6-1,2.4c-1.3,5.8-5.9,8.1-10.8,9.1c-5.5,1.1-9.5,4.5-14.2,7c-1,0.5-1.2,1.6-1.5,2.5c-0.6,2.2-1.9,3.6-4,4.6
			c-3.9,1.8-6.1,5.6-9.2,8.5c-0.9,0.9-0.7,2.3-0.7,3.5c0,7,0,14,0,21c0.1,14.5,0.3,29.1,0.4,43.6c0,3.9,0.9,5,4.8,5.6
			c1.4,0.2,2.9,0.3,4.1,1.2c1.4,0.9,2.7,0.6,4-0.1c2.1-1.2,4.2-1.7,6.7-0.9c2.2,0.7,6-2.2,6.6-4.9c0.5-2.6,1.4-4.6,3.6-6.4
			c1.1-0.9,2.7-2.9,1.9-5.2c-0.3-0.9-0.1-2,0.3-2.9c0.4-0.9,1.1-1.7,2-1.4c2.8,0.9,5.2-0.8,7.8-0.8c0.6-1.2-0.7-2.3,0.2-3.3
			c0.9-0.9,2.1-1.1,3.4-1.2c3.4-0.3,6.5-1.2,8.9-3.8c1.2-1.3,2.9-1.7,4.5-2c0.8-0.2,1.7-0.1,2.1,0.6c0.7,1.3,1.9,1.1,3.1,1.3
			c1.9,0.5,3.5,0.8,4.9-1.1c0.6-0.9,2.1-0.6,3.2-0.5c5,0.5,9.6-1.5,14.5-1.9c1.4-0.1,2-1.3,2.6-2.4c1-2.1,2.5-3.4,5-2.9
			c0.9,0.2,1.8-0.1,2.4-0.8c2.5-2.9,5.8-3,9.2-2.5c1,0.2,1.7,0,2.5-0.5c2.3-1.3,4.8-1.3,6.9,0.4c1.6,1.2,3,1.4,4.5,0.7
			c-0.6-4-2.6-7.7-3.3-11.7c-0.9-5.7-3-11.1-0.8-17.1c1-2.6,0.9-6-0.4-9c-0.3-0.8-0.3-1.9,0.2-3c0.2-0.6,1-1.1,0.7-1.6
			c-2.9-4.7,1.3-6.3,3.7-8.7c2.3-2.3,2.9-5.2,2.7-8.3c-0.2-2.2,0.3-3.8,2.3-5.4c3.9-3.2,5-9.1,3.1-12.9c-0.9-1.8-1.8-2.8-4.1-2
			c-1.7,0.6-2.7-0.8-4-1.6c-4.2-2.6-3.8-1.7-7.4,0.2c-3.5,1.9-7.2,3.9-11.6,2.9c-1.3-0.3-2.7-0.3-4,0.9c-2.2,1.9-5.1,2.4-7.9,1.4
			C393.6,261.4,391.5,262,389.5,262.4z"/>
		<path class="st0" d="M187.2,256.9c-1.6,1-1.7,2.7-1.4,4.4c0.3,1.6,1.1,3.1,3,3.1c1.6,0,3.1,1.1,4.9,0.3c1-0.5,1.9,0.4,2.2,1.5
			c0.2,0.8,0.3,1.7,0.3,2.6c0.1,1.8,0.9,2.9,2.8,3c1.4,0.1,2.6,0.4,3.6,1.5c1.7,1.9,3.8,2.5,6.3,1.9c1.4-0.3,2.8-0.7,4.2-0.8
			c1.9-0.1,2.8-1,2.8-2.9c0.1-2.9,1.3-5.3,3.1-7.6c0.9-1.2,2-1.4,3.2-0.6c2.3,1.4,3.7,4.8,3.1,7.6c3.1-1.7,6.8-2.5,9.2-5.4
			c0.4-0.5,1-0.5,1.5-0.3c1.9,0.8,2.9-0.3,3.8-1.7c1-1.6,2-3.2,4.1-3.6c1-0.2,1.1-1,1.1-1.8c-0.1-0.9-0.3-1.7-0.5-2.6
			c-0.4-2.3-1-4.6-1.2-6.9c-0.2-1.5,1-2.5,2.8-2.6c1.6-0.2,2.4,0.5,2.6,2.2c0.1,0.7,0,1.3,0.1,2c0.2,0.8,1.1,1.1,1.5,0.5
			c1.5-2.3,4.3-4,3.2-7.5c-0.4-1.5-0.5-3.1,0.2-4.6c0.7-1.5,0.1-2.8-1.2-3.3c-3-1.1-5.3-3.5-8.5-4.2c-2.2-0.5-2.9-1.7-1.9-3.6
			c0.9-1.7,0.8-3.4,0.2-4.8c-1.1-2.6-0.9-5.7-3.4-7.8c-1.2-1-0.2-3.8-2.4-3.8c-1.6,0-3.3,0.2-4.9,0.5c-0.6,0.1-1.2,0.1-1.4,0.7
			c-1,2.8-2.7,2.3-4.8,1.3c-0.7-0.3-1.5-0.4-2.3-0.4c-2.8-0.1-5-1.1-5.9-4c-0.3-1-0.8-1.4-2-0.9c-2.9,1.2-4.3,0.4-4.7-2.7
			c-0.2-1.6-0.4-3.3,0.1-5c0.6-2.1-0.7-3.6-1.4-5.3c-0.2-0.3-0.5-0.5-0.8-0.4c-0.3,0.1-0.7,0.4-0.6,0.6c0.3,2.5-1,5.2,0.6,7.5
			c1.8,2.5,1.1,5,0.6,7.6c-0.5,2.7,0.6,5.7-1.5,7.9c-2.1,2.2-2.4,4.8-3.2,7.5c-0.5,1.9-0.1,3.1,1.3,4.3c2.2,1.9,2.1,2.2-0.2,3.9
			c-2.8,2-5.8,3.8-7.8,6.7c-1.7,2.4-3.7,4-6.4,5.1c-2.5,1-2.4,1.1-1.8,3.6C190.4,252.6,190.1,255.1,187.2,256.9z"/>
		<path class="st0" d="M180.5,273.9c1.7,1.1,3.4,1.3,5.3,0.5c0.3-0.1,0.6-0.2,1-0.3c4-1.2,5.9-1.4,6.1,4.6c0.1,3.1,1.1,5.1,3.8,6.3
			c1.2,0.6,2.2,1.5,3,2.5c0.9,1.2,1.9,1,2.7-0.2c0.5-0.7,1-1.5,1.5-2.2c1.2-1.5,2.7-2.6,4.6-3c2.8-0.5,2.8-0.6,3.5,2.2
			c0.2,0.8,0.4,1.2,1.2,1.2c1.7,0.1,2.2,1.3,2.5,2.7c0.3,1.3,0.8,2.4,2.2,3.1c2,1.2,2.3,3.7,3.3,5.7c1,2.1,0.8,4-0.5,5.9
			c-1,1.5-0.7,2.5,1,3.1c2.1,0.8,3.7,1.9,4.4,4.1c0.2,0.8,0.9,1.2,1.8,1.3c1,0.1,2,0.4,2.5,1.4c0.5,1,1.1,1.4,2.1,0.7
			c1-0.6,2.1-1.5,1.5-2.6c-2.1-4.6,0.4-7.3,3.7-9.7c0.8-0.6,1.2-1.1,0.8-2.2c-0.5-1.4-0.7-2.9,0.1-4.2c1.3-2.1,2.6-4.2,4.5-5.7
			c1.3-1,2.5-0.2,3.5,0.8c2.4,2.2,2.6,2.2,4.5-0.4c1.5-2,3.8-3.2,5-5.6c0.6-1.2,2.1-1.5,3.5-1.4c1.3,0.1,2.6-1.1,3.2-2.6
			c0.5-1.3-0.4-1.7-1.3-2.3c-1.5-0.9-3-1.9-4.4-3c-1.9-1.3-1.9-2.4,0-3.8c0.8-0.6,1.3-1.1,1.2-2.1c-0.1-0.9,0.1-1.8,0.5-2.6
			c0.4-0.9,0.3-1.6-0.3-2.5c-1.6-2.6-1.3-5,0.7-7.3c0.9-1.1,1.6-2.4,2.4-3.6c0.4-0.7,0.9-1.6,1.6-1.6c4.3-0.1,3.7-4.2,5.2-6.5
			c0.7-1.1,0.5-2.9,1.9-3.7c0.2-0.1,0.4-0.3,0.4-0.5c0-3.1,2.2-5.2,3.3-7.8c0.1-0.3,0.3-0.6,0.4-0.9c-0.2,0-0.5,0-0.7,0
			c-0.8-0.1-1.5-0.3-2.1-0.7c-0.5,0.4-1.1,0.8-1.7,1.1c-2.3,1.3-4.4,2.8-7,3.5c-0.7,0.2-1.3,0.8-1.9,1.3c-1,1.1-1.8,2.4-3.6,1.4
			c-0.6-0.3-0.9,0.3-1.2,0.8c-0.6,1.2-0.4,2.4-0.1,3.6c1.1,4.4-2.1,7-4.3,9.9c-0.6,0.8-1.6,0.6-2.5,0.4c-0.8-0.2-1.6-0.5-2.4-0.8
			c-0.3,1.1,0,2.1,0.4,3.2c0.4,1.2,0.3,2.4,0.2,3.6c-0.1,1.4-0.7,2.5-2,2.7c-1.8,0.2-2.6,1.4-3.5,2.8c-1.1,1.8-2.4,3.2-4.8,2.9
			c-0.7-0.1-1.2,0.4-1.8,0.7c-1.4,0.8-2.8,1.8-4.4,2.4c-1.8,0.8-3.2,1.8-4,3.7c-0.4,1-1,2.1-2.4,1.9c-1.5-0.2-1.9-1.4-2.2-2.6
			c-0.3-1.1-0.3-2.2,0.1-3.3c0.3-0.8,1.4-1.3,0.9-2.3c-0.5-1-1-2-2.2-2.5c-2.3,1.6-2.6,4.2-3,6.7c-0.2,1-0.2,2-0.4,3
			c-0.2,0.8-0.7,1.6-1.6,1.4c-2.4-0.6-4.6,0.5-6.9,0.8c-2.9,0.4-5.6,0.2-7.7-2.1c-0.7-0.8-1.6-1.1-2.6-1.3c-3.9-0.9-4.5-1.6-4.8-5.5
			c0-0.3-0.1-0.6-0.2-1c-3.4,0.7-7.6-1.3-10.3-5c-1.1,0.2-1,1.1-0.9,1.8c0.3,3-0.3,5.7-1.9,8.2C180.6,272.9,180.6,273.4,180.5,273.9
			z"/>
		<path class="st0" d="M112.7,440.3c0.3,2.6,2.1,4,4.2,5.1c0.6,0.3,1.3,0.1,1.9-0.2c2.3-1,4.6-2.3,7.2-0.6c0.6,0.4,1.4-0.2,1.6-0.8
			c0.2-0.6-0.4-0.9-1-1c-2.1-0.4-2.9-2.5-4.7-3.3c-1-0.4-1.1-2.1-0.9-3.3c0.4-2.6,0.5-5.3,2.5-7.4c-0.6-0.5-1-0.9-1.3-1.3
			c-0.7-0.9-3.9-3.6-4.9-3.9c-2-0.6-2.4-2-2.4-3.9c-0.1-2.9-0.1-2.9-3-3.5c-2.3-0.5-3.3-1.9-2.4-4.1c0.5-1.1,0.4-1.9-0.1-2.8
			c-0.4-0.8-0.5-1.7-0.4-2.6c0.2-2.2,1.2-3.1,3.5-3.1c1.2,0,2.4,0.2,3.6,0.5c1.1,0.3,1.7-0.2,2-1.1c0.7-1.9,1.3-3.8,2-5.7
			c1-2.9,2-3.5,5-2.7c1.9,0.6,3.2,0,4.3-1.5c0.3-0.5,0.6-1,0.9-1.4c1.4-1.6,2.4-1.6,3.7,0.2c0.4,0.5,0.6,1.2,1,1.7
			c0.5,0.6,1.2,0.7,1.8,0.3c0.7-0.3,0.3-0.9,0.2-1.5c-1-2.6-2-5.2-2.9-7.8c-0.6-1.8-1.2-3.5-1.2-5.5c0-1.5-0.6-2.8-1.9-3.7
			c-0.8-0.6-1.5-1.3-2.3-2c-1.5-1.1-2.1-2.6-1.7-4.4c0.4-1.7-0.6-2.3-1.9-2.9c-3-1.5-6.1-0.6-9.2-0.6c-0.8,0-0.9,0.8-1,1.5
			c-0.5,3-2.4,4.3-5.3,4.4c-0.4,0-1,0-1.3,0.2c-1.8,1.9-4.2,2-6.5,2.7c-1.8,0.6-3,0.6-4-0.8c-1.2-1.5-2.4-2-4.3-1.5
			c-1.8,0.5-3.4-0.2-5.1-0.9c-2.5-1-4.1-3.2-6.6-4.2c-1.1-0.4-1.3-1.9-1.7-3.1c-0.1-0.3-0.2-0.6-0.3-0.8c-1.3,0.8-1.5,3-1.9,4.5
			c-0.8,3.4-2.3,6.1-5.4,7.6c-2.2,1.1-2.2,3.2-2.6,5c-0.9,3.9-1.4,4.6-5.1,4.9c-0.7,0.1-1.4,0.2-1.9,0.6c0,0.1,0,0.2,0,0.3
			c-0.1,1.3,0.4,2.3,1.2,3.3c2.5,2.8,5,5.6,6.1,9.4c0.4,1.4,1.4,2.2,2.9,2.3c2.6,0.2,5.1,1.1,7.8,0c1.6-0.6,3,0.1,3.5,2
			c0.6,2,1.8,3.4,3.7,4.5c2.7,1.5,3,4.8,0.6,6.9c-1.3,1.2-2.9,2.1-3.3,4.1c1.8,0.6,3.4,1.1,5.1,1.7c1.5,0.5,2.5-0.4,3.5-1.3
			c2.5-2.3,3.8-2.2,5.4,0.6c0.7,1.1,1.5,1.8,2.5,2.6c2.4,2,2.6,3,0.9,5.5c-1.3,1.9-0.6,3.6,0.2,5.3c0.4,0.9,1.3,1,1.9,0.3
			c1.1-1.2,2.8-1.3,3.9-2.5c0.7-0.8,1.6-0.7,2.3,0.1c1.2,1.4,2.4,3,1.9,5.1C112.7,437.4,112.6,438.8,112.7,440.3z"/>
		<path class="st0" d="M145.9,283.7c-0.8,0.3-1.7,0.7-2.6,0.3c-1.6-0.8-2.8-0.1-4,0.9c-1,0.8-2.7,1.3-2.3,2.9c0.4,1.7,2,0.7,3.1,0.8
			c1.9,0.2,3.2,1.4,3.2,3.1c-0.1,1.7-1.4,3.4-3.1,3.2c-2.1-0.2-2.4,0.8-2.5,2.4c-0.1,1.2-0.4,2.4-0.7,3.9c3.9-1.7,4.3-1.6,5.6,2
			c0.4,1.1,0.7,1.8,2,1.4c2.6-0.8,4.8,0.2,6.6,2.1c0.5,0.5,0.9,1,1.7,0.6c0.8-0.4,1.3-1,1-1.9c-1-2.5-0.2-4.6,1.2-6.8
			c1.8-2.8,1.8-3.1,5.1-1.9c2,0.7,2.2,0.8,2.9-1.3c0.7-2.5,2.4-3.5,4.7-3.3c2,0.2,3.9-0.4,5.9-0.4c1.1,0,1.3-0.5,1.6-1.3
			c0.5-1.8,1.1-3.6,1.6-5.4c0.7-2.8,0.6-5.7,0.5-8.6c0-0.7-0.4-1.3-1.1-1.5c-0.8-0.3-1.2,0.3-1.6,0.8c-0.5,0.6-0.9,1.3-1.3,1.9
			c-1.4,2.2-3.1,3.5-6.1,2.7c-2.3-0.6-3.7,0.4-4.6,2.6c-0.3,0.6-0.5,1.2-0.8,1.8c-0.9,1.6-2.2,2.8-4.2,2.8c-2-0.1-3.5-1.2-4-3
			c-0.6-2.7-2.9-4.1-4.1-6.3c-0.3-0.6-0.7-0.8-1.3-0.4c-0.6,0.3-1.2,0.7-1.1,1.5c0.1,0.4,0.4,0.8,0.5,1.2
			C148.3,282.6,148,283.1,145.9,283.7z"/>
		<path class="st0" d="M113,336.3c-2,0.8-4.1,1.6-6,2.9c-1.3,0.9-2.5,0.7-3.5-0.6c-0.6-0.8-1.2-1.2-2.2-1c-0.4,0.1-1.1,0.1-1.3-0.2
			c-1.6-2-4-1.6-6.1-1.9c-1-0.1-1.9-0.4-2.7-1.1c-1.7-1.5-3.7-1.7-5.9-1.5c-0.8,0.1-1.2,0.3-1.7,0.8c-1.3,1.4-2.7,2.7-4.1,4
			c0.1,0.1,0.1,0.1,0.2,0.2c1.2,0.9,1.2,2.4,2.2,3.3c0.5-0.7,1.5-1.1,1.9-1.8c1.8-3.1,3.3-2.8,5.6,0.3c-0.8,1-2.2,1.6-2.8,3
			c0.4,2.7,2.3,2.8,4.4,2.7c1.3-0.1,2.8-0.3,3,1.7c0.1,1.3,0.5,2.8-1.6,3c-0.5,0-1.3,0.4-1.3,0.6c0.3,4.1-2.6,5.2-5.7,6.4
			c-1.2,0.5-1.7,1.9-2.3,3c-0.5,0.8-0.6,1.7-1.4,2.3c0.1,0.3,0.3,0.7,0.4,1.1c0.4,1.4,1,2.4,2.5,2.8c0.6,0.1,1.3,0.3,1.7,0.9
			c2,2.6,4.7,3.4,7.9,2.8c1.6-0.3,3.1,0,4.2,1.4c0.7,1,1.4,1.1,2.8,0.8c2.1-0.5,4.3-0.5,6-2.2c0.2-0.3,0.8-0.3,1.3-0.3
			c3.1,0.1,4.2-1.5,4.7-4.4c0.4-2.5,1.1-2.7,3.7-1.9c0.4,0.1,0.9,0.4,1.3,0.2c3-0.9,5.7,0.1,8.4,1.1c2,0.7,2.4,0.5,3-1.6
			c0.2-0.9,0.5-1.7,0.4-2.6c-0.1-5.4,2.7-9.9,4.2-14.8c0.9-2.8,2.3-5.3,5.1-6.7c1.2-0.6,1.4-1.5,0.9-2.8c-1-2.5-1.7-5-3-7.4
			c-1.7-3.1-2.3-6.4-2.2-9.9c0.1-2.6,0.4-2.9,2.9-2.7c0.8,0.1,1.5,0.3,2.5-0.6c-2.2-0.2-3.3-2.3-5.6-1.8c-0.8,0.2-1.3-0.8-1.6-1.5
			c-0.6-1.6-1.1-3.2-1.7-4.7c-0.7-1.6-1.4-1.6-3.1-0.9c-2.5,1-3.6,3.5-5.5,5.1c-1.1,0.9-2.1,2-3.4,2.6c-2.6,1.3-4,3.4-4.2,6.3
			c-0.1,1.6-0.3,3.1-1.6,4.2c-0.4,0.4-0.9,1-0.7,1.4c1,1.8,0.8,4.2,2.2,5.6c1.4,1.4,0.9,2.3,0,3.4C114.4,335.6,113.7,336,113,336.3z
			"/>
		<path class="st0" d="M90.3,464.5c0-1.8-0.2-3.3-2.1-4.1c-1.4-0.6-1.6-1.9-0.8-3c2.2-3.1,2.5-7.1,4.8-10.2c1.1-1.4,1.4-3-0.5-4.3
			c-1.3-0.9-1-2.3-0.4-3.6c0.9-2,2.6-3,4.6-3.6c0.8-0.3,1.7-0.4,2.6-0.7c1.5-0.5,2.4-1.2,1.8-3.2c-0.5-1.9-0.7-4,0.9-5.7
			c0.8-0.9,0.5-1.7-0.4-2.2c-1.8-1-3.1-2.4-3.6-4.2c-1.2,0-1.5,0.7-2,1.1c-1.8,1.6-3.7,2.4-6,1.1c-1.1-0.6-2.4-0.6-3.5-0.9
			c-2.5-0.7-3.2-2.3-1.9-4.5c0.8-1.5,2.1-2.5,3.4-3.7c1.7-1.5,1.6-2.4-0.3-3.6c-1.9-1.1-3.2-2.8-4.1-4.7c-0.6-1.2-1-2-2.4-1.3
			c-3.3,1.7-6.3-0.4-9.4-0.7c-1.6-0.2-2.5-1.9-2.9-3.4c-0.9-3.2-3.1-5.6-5.2-8c-0.9-1.1-1.7-2.1-2-3.3c-1.1,0.7-2.3,1-3.4,1.6
			c-0.5-0.7-1.6-1.1-1.6-2c0-1.3-0.4-1.7-1.7-1.7c-1.6-0.1-1.3,1.5-1.8,1.9c-1.1,0.8-0.1,2.1-1.5,3c-2.6,1.6-3.2-0.9-4.7-1.6
			c-2,0.4-3.4,1.4-3.7,3.4c-0.1,1-0.9,1.9-1.4,1.9c-1.9,0.1-2.7,1.1-2.6,2.8c0.1,1.8-0.6,3.7,1.2,5.4c3.1,2.9,2.2,7.7-1.6,9.6
			c-1.2,0.6-1.3,2-0.9,2.3c1.1,0.7,0.6,1.7,0.8,2.5c0.4,1.3,0,2-1.9,1.7c-9.3-1.7-8.7-0.3-12.1,6.1c2.1,2.2,4.1,4.6,7.1,5.8
			c3.2,1.3,4.6,4.2,6,7c0.6,1.3,1.2,2.7,3,2.3c3.8-0.8,6.5,1.2,8.2,4.1c1.7,2.7,4.1,3.5,6.8,3.9c2,0.3,3.7,1,5.3,2
			c3,2,6.2,3.3,10,2.7c1.9-0.3,3.8-0.5,4.1,2.6c0.3,2.2,1.8,4.3,4.2,5c1.8,0.5,1.7,1.7,1.6,3c-0.1,2,1,3.5,2.7,3.9
			c2.4,0.5,4.8,1.6,7.2,1.5C90.2,467.2,90.2,465.9,90.3,464.5z"/>
		<path class="st0" d="M100,179.9c0.8,0.3,1.5,0.8,1.6,1.7c0.6,5.1,3.6,9.5,4,14.7c0.1,1.8-0.3,3.4-1.7,4.7c-6-1.4-6.3-2.4-2.2-8.1
			c-0.9-0.4-1.6-0.9-2.3-1.5c-0.2,2-0.7,3.9-2.6,5.3c-0.3,0.2-0.7,0.7-0.7,1.1c0.4,2.4-0.6,4.3-1.8,6.2c-0.4,0.6-0.1,1.3,0.4,1.8
			c0.4,0.4,0.8,0.8,1.3,1.1c7.1,4.3,11.5,11.3,16.8,17.4c2.8,3.1,1.4,6.7,1.2,10.2c0,0.9-1,1-1.9,0.9c-1.6-0.1-2.9-0.9-4.3-1.7
			c-2.2-1.4-4-0.6-4.7,2c-0.1,0.5-0.1,1.1-0.1,1.7c-0.1,1.5-0.8,2.5-2.4,2.7c-0.6,0.1-1.1,0.1-1.6,0.3c-1.4,0.5-1.8,2-0.5,2.7
			c1.9,1.1,3.2,2.4,3,4.7c-0.1,0.6,0.5,1,1,1.2c1.9,0.8,2.5,2.6,2.3,4.4c-0.3,3.6,2.6,5.4,4,8.1c0.3,0.6,0.9,0.6,1.5,0.5
			c2.7-0.6,5.4-1.1,8-2c2.9-1,6.7,0.4,7.4,3.4c0.9,4.1,2.7,7.7,4.6,11.3c0.9,1.7,1.2,3.5,0.8,5.5c-0.3,1.6-0.4,3.3-0.1,5
			c0.4,2.1,1.6,2.5,3.3,1.2c1.1-0.9,2.2-1.8,3.3-2.7c1.7-1.4,3.6-2.2,5.8-1.6c0.5,0.1,1.1,0.1,1.6-0.3c-0.6-3.5,0.2-5,3.3-6.1
			c1.3-0.5,2.5-0.5,2.9,1.1c0.4,1.4,1.2,2.3,2.3,3.2c1.1,0.9,1.3,2.2,1.8,3.5c0.4,1.2,1,2.4,2.4,2.4c1.4,0,2-1.2,2.5-2.4
			c0.6-1.6,0.8-3.5,2.9-4.2c1.6-0.6,3.2-1,4.9-0.5c1.6,0.4,2.5-0.4,3.3-1.6c0.7-1,1.4-2,2.1-3c0.7-0.9,1.7-1.7,2.9-1.3
			c1.5,0.5,2,0,2.6-1.4c0.9-1.9,1.6-3.7,1.4-6c-0.2-2.3,0.6-4.7,2.4-6.4c1.5-1.4,1.8-3.8,4.1-4.6c0.7-0.2,0.7-1.3,0.7-2.1
			c0-1-0.2-2-0.5-2.9c-0.8-3.1-0.6-3.6,2.3-4.7c2.9-1.1,5.2-2.7,7-5.4c1.9-2.8,5-4.4,7.5-6.6c0-1.3-1.6-1.6-1.4-2.9
			c-1.6,0-2.3,1.2-3.2,1.8c-1.9,1.4-3.9,2.6-6.4,2c-1.7-0.3-2.8-1.2-3.1-3c-0.1-0.8-0.1-1.6-0.4-2.3c-1.7-3-1.8-5.9,0-8.8
			c0.1-0.1-0.1-0.4-0.1-0.6c-1.4,0.3-1.7,1.6-2.3,2.6c-1.2,1.7-1.9,1.8-3.3,0.2c-1.3-1.5-2-3.1-1.8-5.2c0.2-1.9,0.3-3.8,0.5-5.6
			c0-0.4-0.1-1.1,0.2-1.3c2.5-2.2,1.2-4.9,0.9-7.3c-0.3-3-2.3-5.4-4.4-7.5c-0.7-0.7-1.7-1.1-2.5-1.7c-1-0.8-1.9-1-2.9,0.2
			c-0.6,0.7-1.4,1.1-2.3,1.2c-2.3,0.2-4.6,0.6-6.5,2.1c-1.3,1-2.6,0.1-3.7-0.6c-1.3-0.9-2.3-0.8-3.3,0.6c-1.9,2.8-3.3,6.1-6.7,7.6
			c-0.5,0.2-0.5,0.9-0.7,1.5c-0.7,2.5-0.8,2.6-3,1.9c-1.2-0.4-1.6,0-2.1,0.9c-1.8,3-4.3,5.6-5.2,9.2c-0.5,2-2.2,2.6-4.1,2.8
			c-3.9,0.5-7.8-0.4-11.6,0.3c-4.7,0.8-7.2-0.6-8.3-5.2c-0.7-2.6-2.8-4.8-3.3-7.6c-0.5-2.5-0.3-4.6,1.7-6.4c1.6-1.5,2.4-3.4,2.6-5.6
			c0.2-2.9,1.3-5.6,1.9-8.4c0.4-1.7,1.6-2.7,2.8-3.6c1.6-1.1,2.3-2.6,2.6-4.5c0.3-2.4,0.2-2.6-2.2-3.5c-1.8-0.6-2.7-1.9-3-3.6
			c-0.3-1.9-0.4-3.8-2.4-4.8c-0.3-0.1-0.5-0.5-0.5-0.8c0-0.2-0.1-0.3-0.1-0.5c-0.7,0.7-1.4,1.5-2,2.3c-2.7,3.7-6.1,5.3-10.2,6.1
			c-1,0.2-2,0.6-3,0.7c-1.3,0.2-2.4,0.5-2.7,2C98,178.7,98.7,179.5,100,179.9z"/>
		<path class="st0" d="M73.2,235c1.4,1,2.6,2.9,1.8,5.2c-0.7,2.2,0.4,3.8,2.9,3.6c1.8-0.1,2.6,0.9,3.4,2.3c2.4,4.5,2.4,9.4,2.7,14.3
			c0.3,4-1.2,8,2.2,11.8c2.6,2.9-1.2,9.8-5.2,10.1c-1.7,0.1-2.6,1.2-3.6,2.1c-1.4,1.3-0.9,2.8,1,3.2c0.9,0.2,2,0.2,2.3,1.1
			c0.8,3.2,3.3,6.1,1.7,9.6c-0.7,1.6-1.1,2.9,0.7,4c1.3,0.8,0.7,2.2,0.6,3.3c-0.1,2.5,0.1,4.7,2.3,6.4c1.4,1.1,2,2.5,0.4,4.3
			c-1.7,2-1.4,4.8-2.1,7.3c-0.4,1.4-0.2,2.9-2.5,3.6c-1.5,0.5-3.9,2.5-4.3,4.7c-0.2,1.3,0,2.6,0.6,3.7c0.7-0.6,1.4-1.2,2.1-1.8
			c0.5-0.4,1-0.9,1.4-1.4c2.2-2.6,4.5-3.4,7.8-1.9c3,1.4,5.9,3.1,9.4,2.7c1.7,1.8,4.8,0.7,6.3,3.1c0.3,0.5,0.9,0.7,1.5,0.3
			c1.8-1.3,4-1.8,6-2.9c-1.1-2.6-0.9-5.4-2.1-7.8c-0.5-1.1,0.2-2.2,1.1-2.9c1.1-0.8,1.4-1.9,1.4-3.2c0.1-3.6,1.9-6.1,5-7.7
			c2.5-1.3,4.3-3.4,6-5.6c1.3-1.7,1.3-2.6-0.2-4c-0.8-0.8-1.7-1.5-2.1-2.5c-2.4-5.3-2.4-7.4,2.8-11.3c0.3-0.2,0.5-0.4,0.8-0.5
			c2.7-1.4,3.6-3.4,3.7-6.6c0.2-4.1-0.8-7.6-2.9-11c-1.2-1.8-1.5-3.9-2.1-5.9c-0.8-2.9-2.4-3.7-5.3-2.9c-2.7,0.7-5.4,1.3-8.1,1.8
			c-1.7,0.4-3-0.3-3.9-1.8c-0.4-0.7-0.6-1.5-1.2-2c-2.1-1.7-2.8-3.9-2.7-6.5c0-1.4-0.3-2.7-1.8-3.2c-1.2-0.4-1.7-1.4-1.6-2.6
			c0.1-1.3-0.4-2.3-1.7-3c-1.9-0.9-2.3-2.5-2-4.5c0.3-1.8,1.6-2.6,3.3-2.6c1.4,0,1.9-0.7,1.9-2.1c0-1.5,0.9-2.7,1.9-3.8
			c1.8-1.9,3.4-2.1,5.6-0.8c0.9,0.6,1.8,1.4,3.1,1.6c0.9-2.7,1.3-5.3-0.8-7.7c-5.1-5.8-9.4-12.4-16.1-16.7c-3.4-2.2-3.5-3.4-1.5-6.9
			c0.6-1.1,1.1-2.1,0.7-3.4c-0.5-1.4-0.2-2.5,1.4-3.2c1.5-0.7,2.2-2.2,2.2-3.8c0-0.8,0.1-1.6,0.1-2.4c-1.6-2.5-5-3.4-7-5.7
			c-1.4-1.6-2.9-2.9-3.7-5c-0.8-2.5-2.8-3-5.3-1.7c-3.2,1.7-3.5,2.6-2,5.3c0.6,1,1.1,2.3,2,3c4.6,3.5,4.5,9.3,7.2,13.8
			c1.1,1.9-0.8,3.8-2.2,5.3c-3.7,3.7-7.1,7.6-9.9,12c-0.5-0.5-1.3-0.8-1.7-0.9c-1.5-0.3-2.3-2.2-4-1.7c-1.6,0.5-1.8,2.1-2.1,3.6
			c-0.2,1.1-1.7,1.4-2.6,2c-4,2.5-4.2,3.9-1.3,7.4C67.6,229.1,69.8,232.6,73.2,235z"/>
		<path class="st0" d="M121,170.5c0.3,1.9,0.8,3.4,3.1,3.5c1.7,0.1,2.5,1.3,2.5,3c0,3.3-0.5,6.5-3.5,8.5c-2.9,1.9-2.9,5.2-3.5,8
			c-0.7,3.8-1.3,7.4-4.3,10.2c-1.1,1-0.8,2.5-0.5,3.8c0.9,3.7,3.5,6.7,4.7,10.3c0.2,0.6,0.8,0.6,1.4,0.6c4.6,0,9.1-0.1,13.7-0.1
			c2,0,3.2-0.8,3.9-2.9c1.2-3.9,4.2-6.8,6.2-10.2c0.1-0.2,0.3-0.3,0.5-0.5c0.9-1.2,2.7,1.1,3.3-0.9c0.4-1.3,1.3-2,2.5-2.3
			c0.9-0.2,1.4-1,1.9-1.8c0.8-1.2,1.6-2.4,2.4-3.6c2.5-3.7,2.8-3.9,7-2.1c0.9,0.4,1.7,0.6,2.5-0.1c1.3-1.3,2.9-1.4,4.6-1.5
			c2.6-0.2,3.7-1.3,4.1-4c0.2-1.4-0.1-2.9,0.6-4.2c0.3-0.6-0.1-1-0.7-1.3c-1-0.5-2-1.1-3.2-0.9c-0.9,0.2-1.8,0.1-2.5-0.5
			c-1.1-1-1.8-0.5-2.8,0.4c-2.5,2.3-3.8,2.1-6.4-0.2c-0.6-0.5-1.3-0.9-2-1.2c-1.7-0.8-2.6-1.9-2.2-3.9c0.3-1.2-0.4-2.1-1-3
			c-1.1-1.5-1.3-3.3-0.9-5.1c0.4-1.7,1.3-3,3.2-3.4c0.9-0.2,1.7-0.4,2.6-0.7c1.6-0.7,2-2.1,0.5-2.9c-1.7-1-3.1-2.1-4.2-3.6
			c-0.3-0.4-0.9-0.6-1.4-0.7c-1.6-0.4-3.3-0.6-3.7-2.7c-0.1-0.6-1-0.9-1.6-1c-2-0.5-3.6-1.8-5.3-2.7c-1.7-0.9-3.1-2.1-3.5-3.9
			c-1.8,0.1-2.9,1.4-4.2,2.7c-2.5,2.4-3.8,5.7-6,8.4c-1.2,1.5-2.5,2.4-4.3,3.1c-2.2,0.9-4.4,2.1-6.3,3.6
			C119.2,166.4,120.6,168.2,121,170.5z"/>
		<path class="st2" d="M454.1,425.2c0.3-1.4-0.7-2.6-1.4-3.6c-2.2-3.4-3.9-6.9-4.3-11c-0.2-1.6-0.6-3-2.2-4.1
			c-2.2-1.5-2.4-4.1-2.3-6.6c0.1-1.7-0.3-2.9-1.7-4c-1.8-1.6-3.6-3.2-4.2-5.9c-0.3-1.4-1.4-3.7-4.2-2.5c-0.7,0.3-2.2,0.1-2.3-1.6
			c-0.2-3.2-2.4-3.7-5-3.7c-1.5,0-3,0.1-3.7-1.6c4.1-4.2,8.2-8.4,12.4-12.3c2-1.9,2.1-5.3,5.3-5.9c-0.1-3.7-1.4-6.6-4.7-8.5
			c-3.2-1.9-3.3-5.6-4.3-8.7c-0.6-2-0.3-4.3-3.4-4.3c-0.4,0-0.8-0.2-1-0.5c-0.3,0.1-0.5,0.2-0.8,0.4c-1.3,0.7-2.8,0.5-4.1-0.5
			c-2.3-1.8-4.7-2.6-7.1-0.1c-0.7,0.7-1.6,0.5-2.5,0.1c-2.7-1.3-5.1-0.5-7.3,1.3c-1.2,1-2.4,2.1-4.1,1.6c-1.7-0.5-2.6,0.3-3.2,1.7
			c-1,2.5-2.9,3.5-5.5,3.6c-4.7,0.3-9.3,2.3-14.1,1.8c-0.9-0.1-1.5,0.4-1.9,1.1c-0.6,1-1.5,1.4-2.5,1.3c-2.1-0.2-4.1-0.8-6.2-0.4
			c-0.4,0.1-0.8-0.3-1.1-0.6c-1.5-1.4-2.6-1.6-3.6-0.3c-2.3,3.1-5.7,3.8-9.2,4.3c-1.6,0.2-2.7,0.4-2.3,2.5c0.2,1.3-1.1,2.2-2.5,2.1
			c-2.4-0.1-4.6,1.8-7.2,1c-0.8-0.3-1.1,0.8-0.9,1.4c0.9,2.4-0.1,4.3-1.3,6.1c-0.3,0.5-0.5,1.2-0.9,1.3c-2.6,0.9-2.9,3.1-3.4,5.3
			c-0.5,2.3-1.8,3.9-4,5c-3.6,1.9-7,4.3-10.8,5.9c-1.4,0.6-2.4,1.8-3.3,2.8c-0.1,1.1,0.6,1.2,1,1.4c2.3,1,3.3,2.7,3.6,5.2
			c0.3,2.7,0.4,2.7,3.1,2.5c0.9-0.1,1.9-0.4,2.6,0.1c2,1.5,3.9,2.2,6.6,1.3c2.1-0.7,4.5,1,6.9,0.3c0.5-0.1,1.1-0.1,1.6,0
			c1.1,0.3,2.6,0.2,2.9,1.8c0.3,1.5-0.8,2.2-1.9,2.8c-0.6,0.3-1.7,0.7-1.3,1.6c1.1,2.5-0.6,3.9-2,5.5c-0.3,0.3-0.6,0.6-0.9,1
			c-0.7,0.8-0.9,1.7,0.4,2c2.3,0.6,3.8,2.2,5.2,4c0.5,0.7,1,1.7,2,1.6c1.6-0.2,2.9,0.1,4.1,0.7c0.6-0.7,1.5-1,2.7-1
			c2.2,0,3.4-1.1,4.7-2.4c1.3-1.4,4.5-1.8,5.2-0.3c2.5,4.9,7,4.1,11.1,3.9c5.6-0.3,11.1-0.6,16.7-0.6c4.8-0.1,9.6-0.4,14.3-0.6
			c0.8,0,1.3-0.7,2-0.7l1.3,0.7c-3.3-3-3.7-4.5-2-7.7c1-2,3.1-1.6,3.5-0.6c1.5,3.8,6.3,4.5,6.7,8.9c1.8-1,3.4-0.9,4.5-2l1.3-0.7
			c-1.4-0.5-1.8-1.5-1-2.7c1.2-1.6,3-2.5,4.7-3.3c2-0.8,3.5-1.8,4.7-3.7c1.7-2.7,4.4-3.9,7.7-3.9c1,1.2,1,3,0.5,4.2
			c-1.6,3.8,0.4,6.3,2.8,8.3c3.4,2.8,4.8,6.1,4.6,10.4c-0.1,2-0.2,3.9,1.2,5.7c1.1,1.3,0.2,3.3,0.4,4.9c0.4,3.9,0.7,4,4.7,3.4
			c1.4-0.2,2.4-0.8,3.3-1.7c0-1.1-0.1-2.1-0.7-3C454.6,432.9,453.1,429.3,454.1,425.2z"/>
		<path class="st0" d="M160.4,180.4c1.1,1,2.1,0.9,2.9-0.1c1.7-2.1,3.5-2.5,5.8-0.9c0.5,0.3,1.3,0.1,1.9,0.3
			c4.6,1.3,5.7,0.9,5.8,6.2c1.8-1.7,3.5-3.2,5.1-4.9c0.5-0.6,0.3-1.5-0.1-2.2c-0.9-1.6-1-3.4-0.9-5.2c0.1-1,0-2-0.6-2.9
			c-0.8-1.4-1-2.9-0.7-4.5c0.3-1.6-0.4-2.6-1.7-3.6c-2.4-1.9-4-4.8-6.7-6.3c-0.2-0.1-0.4-0.4-0.4-0.5c0.1-3.2-2.7-5.6-2.3-8.8
			c0.1-1.3-0.3-2.1-1.4-2.7c-1.9-0.9-3.5-2.3-5.4-3.2c-1.2-0.6-2.4-1-3.8-1c-3.2,0-4.4-1.5-3.3-4.4c0.8-2,0.2-2.8-1.5-3.1
			c-2.3-0.5-2.9-1.9-3-4c-0.2-2.1-0.8-4.1-1.3-6.2c-0.3-1.5-1.2-2.6-2.4-3.4c-0.3,0.7-0.5,1.4-1.4,1.5h1.3c1.8,0.3,2.5,1.2,1.7,3
			c-0.6,1.2-0.9,2.5-1.6,3.7c-1,1.7-1.4,3.8,0,5.6c1.1,1.5,0.8,2.8-0.1,4c-1.5,1.9-2,4-2,6.4c0,2.3-1.2,3.9-2.9,3.7
			c0.4,0.6,1.1,1.1,1.9,1.5c1.2,0.7,2.3,1.4,3.5,1.9c2,0.9,4.3,1.3,5.4,3.6c0.2,0.4,1.2,0.5,1.8,0.7c1.1,0.3,2.1,0.8,2.7,1.8
			c0.8,1.2,1.8,1.9,3,2.5c1.6,0.8,2.6,2.3,2.4,4.1c-0.2,1.8-1.5,2.9-3.3,3.2c-0.3,0.1-0.6,0.2-0.9,0.3c-3.3,1-4,2.9-2.2,5.9
			c0.4,0.7,1.2,1.4,1.1,2C155.9,177.9,158.6,178.8,160.4,180.4z"/>
		<path class="st0" d="M316.6,295c0.9-0.4,1.5-1,1.7-1.9c0.7-2.9,2.3-4.9,5.2-5.9c0.8-0.3,1.5-1,2.2-1.5c2.5-2.1,5.5-3.3,8.7-3.9
			c2-0.4,3.9-1,5.6-2c2.3-1.4,4.4-2.8,5-5.8c0.4-2,1.6-3.9,2.5-6c-1.8-1-3.1-2.4-3.8-4.4c-0.1-0.4-0.5-1-0.8-1
			c-2.6-0.1-4.8-0.9-6.3-3.3c-3,0.3-6.2-1.1-9.1,0.6c-1,0.5-2,1-3,1.4c-1.9,0.9-3.8,1-5.8,0c-2-1-4.4-0.9-6.3-0.1
			c-1.9,0.8-3.5,1.2-5.2-0.4c-0.3-0.3-0.8-0.6-1.2-0.6c-3.3,0.1-6.7-0.8-9.9,0.5c-2.9,1.1-5.9,2.1-9,1.2c-0.8-0.2-1.5,0.2-2.3,0.2
			c-5.9-0.4-11.1,2.7-16.7,3.7c-2.9,0.5-4.4,0.4-5.9-2.2c-0.4-0.7-0.5-1.4-0.9-2.2c-0.2-0.4-0.6-0.7-1.1-0.6
			c-0.8,0.3-0.5,0.9-0.2,1.3c0.5,0.9,1.8,1.8,1.3,2.9c-1.2,2.6,0.1,5.8-2.6,8.1c1.6,1.1,2.9,2.1,4.3,3c2.4,1.5,2.8,2.7,1.6,5.2
			c-0.5,1-1.2,1.8-1.4,3c-0.5,2.9-1.6,3.3-3.9,1.6c-0.3-0.3-0.6-0.7-1.5-0.6c-1,2.6-3.7,4.2-5.5,6.5c-1.1,1.4-2.4,2.3-4.2,2.5
			c-1.5,0.2-2.1-1.1-2.8-2c-0.8-0.9-1.4-0.9-2.2,0c-0.8,1.1-1.6,2.1-2.5,3.1c-0.7,0.9-0.8,1.8-0.4,2.8c1.1,2.5,0.3,4.1-2.1,5.5
			c-2.8,1.7-3.3,4.4-1.9,7.3c0.7,1.4,1.8,2.2,2.8,3.2c0.9,0.8,2.1,1.6,1.9,3c-0.2,1.7,0.8,2.3,2,3c1.5,0.8,2.5,2.1,2.9,3.8
			c0.2,0.9,0.5,1.7,0.7,2.6c0.2,1.5,1.1,1.7,2.4,1.5c2.2-0.3,4.3-1.2,6.3-2.1c2-0.9,4-1.4,6.1-0.7c1.7,0.5,3.3,0.1,4.7-1
			c1.1-0.9,2.4-1.7,3.7-1.2c2.8,1,4.7-0.1,6.5-1.9c0.5-0.4,1.1-0.7,1.7-1c5.5-2.1,10.5-5.1,15.6-8.1c2.7-1.6,5.1-4,8.3-4.7
			c1.6-0.4,2.6-1.4,3.7-2.5C309,301.3,311.8,297,316.6,295z"/>
		<path class="st0" d="M363.7,525.1c-2.3-0.4-4.1-1.1-4.6-3.6c-0.2-1-0.8-1.6-1.9-1.1c-1.9,0.7-3.5,0.1-4.7-1.5
			c-0.6-0.8-1.1-1.4-2.2-0.9c-0.2,0.1-0.5,0.2-0.6,0.1c-3-1.4-5.3-0.9-7.1,2.2c-0.6,1-2.1,0.8-2.9-0.1c-2.1-2.4-4.2-4.9-5.1-8
			c-0.2-0.5-0.3-1.1-0.2-1.6c0.9-3.1,0.4-6.2,0-9.4c-0.1-0.9,0.1-2,0.2-3.3c-1.7,0.3-3.2,0.9-4.7-0.4c-1.3-1-2.2-2.1-2.7-3.7
			c-0.4-1.3-1.1-1.7-2.5-1.1c-1.6,0.7-3.4,1.2-5.1,1.5c-2.6,0.5-3.9-0.1-5.2-2.5c-0.6-1.1-1.1-2.2-1.4-3.4c-0.4-1.3-0.2-2.7-2-3
			c-0.8-0.2-0.9-1.2-1-2c-0.2-1.9-1.5-2.6-3.1-2.9c-1.8-0.3-3.5-0.4-4.8-1.9c-0.4-0.5-1-0.4-1.6-0.3c-0.7,0.2-1.5,0.6-2.3,0.2
			c-1.6-0.7-2.8,0.1-3.9,1c-1.6,1.4-3.3,2.6-5.5,2.8c-1.2,0.1-2,0.9-2.7,1.8c-1.5,1.7-3.3,2.8-5.8,2.6c-1.8-0.2-3.3,1.1-3.4,2.9
			c-0.2,3.1-1.7,4.5-4.6,5.1c-2.1,0.4-3.4,2-4.1,4c-0.3,0.7-0.4,1.5-0.8,2.2c-1.3,2.7-3.1,3.3-5.5,1.6c-1.3-0.9-2.2-0.8-3,0.4
			c-0.2,0.3-0.4,0.5-0.6,0.8c-3.1,4-4.2,4.1-7.8,0.5c-1.3-1.3-3.1-1.7-4.8-2.2c-1-0.3-2.1-0.1-2.9-0.5c-2.4-1-4.4-1.5-5.6,1.8
			c-0.5,1.3-2.1,1.3-3,0c-1.1-1.7-2.4-1.6-4-1.1c-2.4,0.6-4.6,0.5-6-2.1c-0.7-1.3-1.8-1.9-3.4-1.2c-1.1,0.5-2.2,0.1-3.1-0.7
			c-0.7-0.6-1.5-1.1-2.4-1.2c-6.8-0.7-13.4-1-20.1,2.1c-2.2,1-4.5,2.1-6.8,3.1c0.1,0.3,0.2,0.5,0.2,0.8c0.3,1.3,0.8,2.6,1.6,3.7
			c1.1,1.5,2.1,3,0.8,5c-0.5,0.7-0.3,2.1,0.6,3c2.7,2.7,5.6,5,9.7,4.6c1.8-0.1,3.1,0.2,4,2c0.8,1.7,2.1,2.9,4.3,2.8
			c0.9-0.1,1.6,0.9,2.3,1.6c1.5,1.4,2.7,3.2,5.3,3.1c1.5,0,3.2,5,2.6,7.5c-0.4,1.7-1.2,3.2-1,5c0.4,4,1.5,5.1,5.7,4.6
			c6.1-0.7,9.4,2.5,8.4,8.4c-0.3,1.9-0.2,4,0,6c0.1,0.9,1,2.3,1.6,2.2c4.8-0.6,5.5,5.2,9.3,5.7c5,0.7,10-0.3,15-0.9
			c2.2-0.3,4.5-0.6,6.7-0.5c4.3,0.1,7.4-2.1,10.3-4.6c1.7-1.5,3.1-3.4,5.7-2.9c1.3,0.2,1.4-1.7,2.7-1.4c0.2-0.1,0.4,0,0.7,0.3
			c3.3,4.8,8.3,4.6,13.3,4.3c1.1-0.1,2.3-0.1,3.3,0.6c2.9,2,4.6,1.8,7-0.3c0.6-0.5,1.1-1.1,1.7-1.7c1.6-1.8,3.2-1.9,5-0.3
			c1.1,0.9,2.4,1.6,3.3,2.7c0.6,0.8,1.3,1.1,2.3,1c2.3-0.3,4.1,0.5,4.7,3c0.2,0.8,0.6,1,1.3,1c1.6,0.1,2.7,1.2,4,1.9
			c2.1,1.2,3.7,2.8,6.6,3c1.8,0.1,3.6,2.8,5.3,4.5c0.3,0.3,0.3,1.5-0.2,2.3c-4.4,6.7-8.6,13.5-13.2,20.1c-3.1,4.4-6.3,8.9-8.5,13.9
			c-0.4,0.9-0.7,1.8-1.5,2.2l1.5-0.2c0.7,1.3,2.3,1.5,2.9,1c2.4-2.2,4-1,5.5,0.9c4.3-2.7,4.5-2.6,7.2-0.8c1,0.7,1.9,1.5,2.6,2.4
			c2.5,3.4,4.9,6.9,7.4,10.3l0.2,0.7c0-0.1,0.1-0.3,0.2-0.4c2-1.9,1.4-4.5,1.9-6.7c2.1-10.5,4-21.1,6-31.7
			c1.4-7.4,2.7-14.9,4.1-22.3c1.5-8.2,2.6-16.5,4.4-24.6c1.4-6.4,2.4-12.8,2.8-19.2C365.3,525.4,364.5,525.2,363.7,525.1z"/>
		<path class="st3" d="M152.3,482.7c2.6,3.1,5,4.8,9.6,2.7c3.1-1.5,5.7-1.2,8,1.4c1.4,1.5,3.1,1.7,5,1.7c3.3-0.1,6.7,1.8,7.1,4.7
			c0.3,2.2,1.4,2.9,2.8,4c1,0.8,1.9,1.8,2.6,2.9c3.3-1.4,6.6-2.9,10-4.3c2.5-1,5-1.7,7.8-2.3c-1-1-2-1.2-3.2-1.3
			c-3.1-0.1-5.9-1-8.1-3.3c-1.3-1.3-2.8-1.7-4.6-1.5c-1,0.1-2,0.2-3,0.2c-2.4,0-2.9-0.3-3.5-2.6c-0.4-1.8-1.3-2.7-3.1-2.9
			c-1.5-0.2-2.3-1.2-2.7-2.6c-0.3-1-0.7-1.9-1.3-2.7c-0.8-1.1-1.8-1.9-3.3-1.8c-2.9,0.2-4.5-1.6-5.6-3.9c-1.8-3.8-3.9-7.4-7.5-9.8
			c-0.4-0.3-1-0.8-1-1.2c-0.4-3.2-2.8-3.7-5.2-4c-2.4-0.3-4.7-0.5-5.6-3.3c-0.2-0.5-0.6-0.6-1.1-0.7c-2.5-0.4-4.9-1.1-7.3-1.8
			c-2.5-0.7-4.5-1.6-5.9-3.8c-1.5-2.3-1.7-2.3-4.1-0.7c-1.6,1-3.1,2.2-5.1,0.6c-0.9-0.8-2.2-0.1-3.1,0.4c-1.8,1-3.6,1.6-5.6,0.3
			c-2.3-1.5-4.2-3.2-4.7-6.1c-0.2-1.2-0.2-2.4,0.1-3.6c0.1-0.8,0.3-1.5,0.3-2.3c0-1.6-0.6-1.9-2.1-1.4c-0.5,0.2-1.2,0.3-1.5,0.6
			c-1.3,1.2-2.7,1.9-4.5,1.4c-0.8-0.2-1.5,0.4-2.1,0.8c-1.5,1-3.4,1.1-5,1.7c-0.9,0.4-1.7,0.9-2.3,1.9c-0.8,1.4,0.5,1.7,1.2,2.3
			c0.9,0.9,1,2,0.7,3.1c-0.3,1.1-0.5,2.3-1.2,3.1c-2.2,2.7-2.4,6.2-4.1,9c-0.4,0.7-0.2,1.2,0.5,1.6c1.5,0.9,1.9,2.4,1.8,4
			c0,1.7,0,3.4,0,5c0.3-0.1,0.7-0.2,1-0.4c0.6-0.3,1.5,0.1,2.3,0.5c4.2,2.4,8.5,4.7,13.7,2.5c1.4-0.6,3.5-0.4,4.9,0.3
			c2.6,1.4,4.4,0.6,6-1.4c3-3.7,7.2-3.8,9.9,0.1c1.2,1.7,2.2,3.2,4.4,3.3c1.1,0,1.4,1.2,1.6,1.7c0.9,3.3,3.7,3.1,5.7,2.5
			c2.4-0.8,3.5-0.3,4.4,1.8c0.5,1.2,1.2,2.2,2.7,2C150.5,480.9,151.3,481.5,152.3,482.7z"/>
		<path class="st0" d="M135.1,445.3c0.8,1.4,2.1,2.2,3.4,2.5c2.8,0.6,5.3,2.2,8.2,2.3c1,0,2.2,0.2,2.6,1.2c0.7,2.2,2.3,2.2,4.1,2.6
			c3.1,0.6,6.6,0.9,7.1,5.1c0,0.2,0.4,0.5,0.7,0.7c3.4,2.7,5.9,6.2,7.7,10.1c0.7,1.6,1.7,3.1,3.6,3c3.5-0.3,5.1,1.9,6.2,4.5
			c0.7,1.5,1.3,2.7,3.1,2.9c1.6,0.2,2.4,1.3,3,2.8c0.9,2.5,1,2.6,3.4,2.2c3-0.6,5.5,0.1,7.6,2.3c1.4,1.4,3.2,2.1,5,2.3
			c3.8,0.4,7.5,1,9.9,4.5c0.1,0.1,0.2,0.2,0.3,0.2c3.3-0.2,6.2,1.6,9.2,1.9c2.6,0.2,4.5,0.5,5.9,2.6c0.7,1.1,1.7,1.5,2.9,1.1
			c2.4-0.9,4.7-0.8,6.7,0.8c0.3-0.5,0.5-0.8,0.7-1c1.8-2.6,2-2.7,4.7-1.3c1.2,0.6,2.5,0.8,3.8,1c2.9,0.4,5.6,1.1,7.6,3.6
			c1.2,1.5,1.9,1.4,3.2-0.1c0.4-0.5,0.8-1.1,1.2-1.6c2-2.4,3.1-2.7,5.9-1c1.4,0.8,2,0.3,2.6-0.8c0.3-0.6,0.4-1.3,0.6-1.9
			c1-2.7,2.8-4.7,5.6-5.3c2.2-0.5,2.8-1.7,3.1-3.6c0.5-2.8,2.8-4.7,5.6-4.6c1.8,0.1,3-0.5,4.1-1.7c1.2-1.4,2.6-2.3,4.5-2.6
			c2-0.3,3.4-1.5,5.2-3.8c-4.1,0.3-6.4-1.1-7.8-4.2c-0.4-0.9-1.1-1.3-2.2-1c-1.5,0.5-2.6-0.2-3.4-1.4c-0.7-0.9-1.4-1.7-1.9-2.7
			c-0.8-1.5-1.3-3.3-3.6-3.2c-0.7,0-1.1-1-1.4-1.7c-0.4-1-0.7-2.1-1.2-3.1c-0.6-1.2-1.4-2.4-3-2.1c-2.1,0.4-3.1-0.8-4-2.3
			c-0.7-1.1-1.2-2.4-2.6-2.9c-1.8-0.6-2.6-2-2.9-3.7c-0.3-1.5-0.8-2.7-2.5-3.2c-0.5-0.1-1.1-0.5-1.3-1c-1.4-2.4-3.9-3.1-6-4.4
			c-2.1-1.3-4.3-0.9-5.6,0c-1.5,1-2.7,3.1-2.1,5.5c0.6,2.2,0.1,2.7-2.1,3.2c-0.5,0.1-1.2,0-1.6,0.3c-2.9,2.1-5.1,0.7-7.4-1
			c-3.5-2.6-5.8-6.5-9.4-8.9c-0.5-0.4-0.9-1-0.9-1.7c0-2.8-1.9-4.8-3.5-6.6c-1.3-1.5-2.1-2.9-2.2-4.9c-0.2-2.3-1-2.9-3.3-2.5
			c-1.8,0.3-3.8,0.7-5.4,1.5c-3.8,2-6.6-1.1-9.9-1.6c-0.4-0.1-0.8-0.8-0.9-1.3c-0.5-3.1-2.8-3.7-5.4-3.7c-1.6,0-2.8-0.7-3.9-1.6
			c-1.6-1.4-3.1-2.9-4.6-4.3c-0.9-0.8-1.4-1.7-1.6-2.8c-0.6-3.4-1.8-6.6-2.1-10.1c-0.5-4.8-1.1-9.5,2.4-13.6
			c1.3-1.6,0.4-3.5-1.6-3.9c-1.4-0.3-2.2-1.1-2.5-2.3c-0.4-1.4-1.3-1.8-2.6-2c-1.8-0.2-3,0.3-3.9,1.8c-1.1,1.8-2.3,3.5-2.2,5.8
			c0.1,1.7-0.7,3-2.3,3.7c-1,0.4-1.5,1.2-1.9,2.2c-1,2.4-2.6,4.4-5,5.6c-1.3,0.6-1.7,1.5-1.7,2.9c0,1.8-0.3,3.5-1.9,4.7
			c-2.8,2.2-5.1,4.9-6.9,8c-0.8,1.5-1.7,2.9-3.8,2.8c-0.9-0.1-1.4,0.6-1.7,1.3c-0.6,1.5-1.8,2.5-2.9,3.6c-1.5,1.6-3,3.3-4,5.3
			c-0.6,1.2-1.5,2.2-2.5,3.1c-1.8,1.6-2.1,1.7-4.3,0.4c-1.1-0.6-2.2-0.7-2.6,0.2c-0.9,1.8-2.4,3.3-2.5,5.4c-0.1,2.1-1.4,4.8,2.3,5.3
			c0.1,0,0.3,0.3,0.4,0.5c0.9,1.8,2.9,2.4,4.3,2.6C132.6,442.5,134,443.5,135.1,445.3z"/>
		<path class="st0" d="M134.9,289.3c-0.2-0.4-0.8-0.3-1.2-0.3c-1.2,0-2.4,0-3.6-0.5c-0.7-0.3-1.2-0.2-1.9,0.2
			c-1.1,0.8-2.2,1.5-3.3,2.3c-2.6,2.1-3,3.9-2.3,6.5c0.6,2.2,2.7,3.2,3.8,4.9c0.6,0.9,1.1,1.1,2.1,1c3-0.1,4.3,0.5,4.8,3.4
			c0.7,3.7,4.1,3.7,6.1,5.6c3.4,0,6.8,0.7,10.3,0.3c1.4-0.2,2-1.5,1.6-2.7c-0.8-2.1-3.3-3.6-5.6-3.5c-4,0.2-4,0.2-5.4-3.5
			c-0.1-0.2-0.3-0.4-0.6-0.8c-0.6,0.4-1,0.8-1.5,1.1c-1.2,0.8-2.6,1-3.7,0c-1.1-1.1-0.9-2.4,0-3.6c0.7-0.9,0.9-2,0.9-3.1
			c0.3-3.5,0.7-3.9,4.1-4.4c0.5-0.1,1.2,0,1.2-0.8c0-0.8-0.6-0.8-1.2-0.8C137.9,290.9,136.1,291.3,134.9,289.3z"/>
		<path class="st0" d="M179.7,279.9c0,3.4-0.7,6.6-1.7,9.8c-0.6,2.2-2,4.2-2,6.6c0,2.4,0.3,4.9-0.4,7.3c-0.2,0.7-0.1,1.5,0.2,2.3
			c0.7,1.5,0.5,3,0.1,4.6c-0.7,3.5-2.1,6.9-1.7,10.7c0.2,2.1-0.9,4.1-2.1,5.9c-1.1,1.7,0.1,2.5,1.4,2.9c0.7,0.2,1.4,0.2,1.9-0.2
			c2.3-1.8,4.6-1.6,7.2-0.8c3.1,0.9,3.7,1.4,2.9,4.5c-0.8,3.2-0.5,6.4-0.9,9.6c-0.1,0.7-0.3,1.7,0.6,2.6c1.9-1.9,3.2-3.7,2.3-6.5
			c-0.5-1.5,0.1-3.1,0.7-4.5c0.5-1.2,1.7-1.2,2.7-1.6c1.4-0.5,1.9-1.7,1.8-3.2c-0.1-2.5-0.1-5.1,0.7-7.6c0.3-0.9-0.1-1.7-0.4-2.6
			c-0.9-2.5-0.6-4.9,0.8-7c1.2-1.7,2.3-3.5,3.2-5.4c1.1-2.3,3.4-2.4,5.2-0.5c0.8,0.8,1.2,1.9,1.3,3c0.5,5.5,0.4,10.9-3.7,15.3
			c-0.7,0.8-1.1,1.6-1,2.7c0.2,2.5,0.5,5.1,0.6,7.6c0.1,0.9,0.6,1.1,1.3,1.2c1.8,0.3,7.8-2.7,8.7-4.3c0.1-0.2,0.3-0.5,0.2-0.6
			c-1-2,0.1-4.4-1.3-6.3c-1-1.5-0.5-2.7,0.6-3.8c1.9-2,4.1-1.7,6.5-1.3c1.9,0.3,3,1,3.4,3c0.2,1.2,0.8,2.3,1.3,3.4
			c0.3,0.7,0.6,1.2,1.5,0.9c3.4-1.2,6.5,0.3,9.7,1.1c1.9-4.4,2.8-9.4,2.1-12.5c-0.7,0.2-1.5,0.5-2.2,0.7c-1,0.3-1.9,0.2-2.3-0.7
			c-0.6-1.4-1.8-1.8-3.1-2.2c-0.9-0.3-1.5-0.9-1.9-1.8c-0.7-1.7-1.9-2.8-3.7-3.5c-2.7-1.2-3.5-3.4-2.1-6c0.9-1.6,1.3-3,0.4-4.7
			c-0.8-1.5-1-3.6-2.7-4.4c-1.3-0.7-2-1.7-2.3-3c-0.3-1.1-0.6-2.1-2.2-1.8c-1.2,0.3-1.8-0.6-2-1.7c-0.1-0.6,0.1-1.4-0.5-2.1
			c-2.5,0.8-2.6,0.9-3.9,2.5c-0.5,0.7-1,1.5-1.6,2.2c-1.9,2.1-3.7,2.2-5.6,0.1c-0.9-1-1.8-2-3-2.5c-3.3-1.6-4.8-4.1-4.4-7.8
			c0-0.3,0-0.7-0.1-1c-0.3-2.1-0.8-2.4-2.9-1.9c-1.7,0.4-3.4,1.3-5.2,0.9C180.1,276.4,179.7,277,179.7,279.9z"/>
		<path class="st0" d="M293.8,232.5c-2,0.6-4.3,0.4-6.4-1.1c-1.2-0.9-2.8-1.1-4.7-0.2c-1.9,0.8-3.9,1-6,0.9
			c-0.4,0.7-0.9,1.5-1.2,2.3c-1,2.4-2.1,4.8-3.2,7.1c-0.9,2.1-1.8,4.4-3,6.5c-0.2,0.4-0.7,0.8-0.7,1.1c0,3-1.7,4-4.5,4.6
			c-1.8,0.4-2.1,2.9-3.6,4.4c1.8,0.9,2.7,2,3.2,3.8c0.6,2.1,1.6,2.1,3.9,1.7c5.8-1.1,11.3-3.9,17.4-3.8c0.7,0,1.4-0.2,2,0
			c2.8,0.7,5.4-0.2,8.1-1c4.6-1.4,9.3-1.9,13.8,0.7c0.5,0.3,1.1,0.5,1.6,0.1c2.1-2,4.7-0.4,7-1.2c0.6-0.2,1.3,0.2,1.8,0.6
			c1.4,1.2,3,1.1,4.3,0.2c4-2.5,8.4-2.4,12.9-2.2c0.9,0,1.8,0.1,2.2,1.1c0.6,1.6,1.7,2.1,3.4,2.2c1.7,0,2.9,1,3.4,2.7
			c0.4,1.2,1,2.2,2.2,2.8c1.6,0.9,3,1.4,4.9,0.2c2.3-1.5,4.9-2.5,7.9-1.8c1.5,0.3,2.8-0.3,4.1-1.1c0,0,0,0,0,0
			c-0.5-0.4-1-0.8-1.5-1.3c-7.2-8.3-14.5-16.6-21.6-25c-2.6-3.1-5.4-4.2-9.4-2.7c-1.9,0.7-4,0.1-5.6-1.3c-1.3-1.2-2.6-2.1-4.3-2.7
			c-3.1-1.1-5.9-1.8-8.7,0.7c-1.8,1.6-4.2,2.1-6.6,2.1c-0.6,0-1.2-0.3-1.7,0.3c-1.9,2.8-4,1.5-6,0.3
			C297.5,232.3,295.9,231.9,293.8,232.5z"/>
		<path class="st0" d="M147.9,117.5C147.9,117.5,147.9,117.5,147.9,117.5c1.8,1.2,2.7,2.9,3.1,5.1c0.3,1.4,0.8,2.8,1,4.2
			c0.3,2.1,0.8,3.6,3.1,4.5c2.6,1,2.7,1.9,1.7,4.7c-0.4,1.1-0.6,2.3,0.9,2c2.1-0.3,3.6,0.5,5.3,1.5c1.9,1.1,3.8,2.2,5.7,3.3
			c1.4,0.8,2,2,1.9,3.6c-0.1,1.6,0.2,3.1,1.2,4.4c0.3,0.3,0.6,0.8,0.6,1.2c-0.4,2.6,1.4,3.7,3,5.1c1.9,1.5,3.1,3.7,5.2,5.1
			c1.1,0.7,1.4,2.2,1.3,3.6c0,0.7-0.5,1.5-0.2,1.9c1.8,3.2,0.8,6.9,2,10.3c1.1,2.8,0.7,4.3-1.7,6c-1.8,1.4-2.7,3.8-5.3,4.3
			c-1,0.2-0.6,1.4,0,1.9c0.9,0.8,1.9,1.5,2.9,2.2c2.6,1.6,5.8,6.9,5.9,9.9c0,0.3-0.1,0.7,0,1c1,2.4,1.8,4.8-1,6.7
			c-0.2,3.1-1.2,6.2,0.2,9.7c1.4-1.5,2.3-2.8,3.7-3.6c0.9-0.5,1.9-0.8,2.8,0c0.9,0.7,0.9,1.7,0.7,2.7c-0.1,0.3-0.2,0.7-0.4,0.9
			c-1.8,2.6-1.8,5.1-0.1,7.7c0.2,0.3,0.3,0.6,0.4,0.9c1,3.3,1.8,3.8,4.7,2c1.8-1.1,3.4-2.4,5.1-3.7c0.8-0.7,0.9-1.7,1.1-2.7
			c0.6-2.4,1-4.8,3-6.5c1.1-4.5,2.8-9,0.7-13.7c-0.6-1.3-0.9-2.5-0.7-3.8c0.1-1.1,0.2-2.2,0.1-3.3c-0.3-2.5,0-3.1,2.2-4.2
			c2.1-1.1,2.5-1.6,2-3.8c-0.4-1.5,0-2.9,0.3-4.3c0.6-2.8,0.5-5.5-0.3-8.2c-1-3.5-2-7.1-2.8-10.6c-0.3-1.4-1-2-2.3-2.3
			c-2.3-0.5-4.2-2.3-6.8-2c-0.5,0.1-1.2-0.3-1.5-0.6c-2.1-3.1-6.1-3.4-8.6-5.9c-0.8-0.8-1.6-1-2.7-1c-2.4,0-4.2-1.1-5.2-3.4
			c-0.8-1.8-2.2-3.1-3.8-4.1c-1.6-1-2.4-2.1-2.5-4.3c-0.1-3.4-0.7-6.8-2.5-9.9c-1-1.7-0.8-3.1,0.6-4.5c1.3-1.4,1.1-1.9-0.6-2.9
			c-3.5-2.1-3.6-2.1-2.6-6c0.3-1.3,0-2.2-1-2.9c-1.6-1.2-3.2-2.5-5.2-2.8c-3.3-0.4-4.4-2.6-4.8-5.5c-0.1-0.4-0.1-0.9-0.1-1.3
			c0-2.4,0.1-4.7-1.4-6.8c-2.5,2.6-3.6,6.3-6.7,8.6c-1.8,1.4-0.7,4-0.3,5.9C149.4,115.6,149.3,117.2,147.9,117.5z"/>
		<path class="st0" d="M158.5,99.5c1,1.2,1.1,2.6,1,4.1c0,1.1,0,2.2,0.1,3.3c0.2,2.3,1.2,3.9,3.8,4.2c2.4,0.3,4,2.3,6.4,3.3
			c3.2-4.6,6.1-9.2,5.8-15.1c-0.1-2.4-0.6-4.6-2-6.6c-1-1.3-1.7-2.7-2.1-4.2c-0.6,0.3-1.1,0.8-1.6,1.4c-3,3.4-5.8,7.1-11,7.4
			c-0.3,0-0.7,0.2-1.2,0.5C157.9,98.5,158.1,99.1,158.5,99.5z"/>
		<path class="st0" d="M216.8,84.6c-1.1,2.5-0.7,5-1,7.5c-0.3,2.2,1.3,3,3.7,2.3c1.8-0.5,3.7-0.9,5.5-1.2c3.2-0.4,5.2,1.3,5.3,4.7
			c0,0.7,0.1,1.1,0.7,1.6c4.2,2.7,4.4,3.8,2.6,8.4c-0.1,0.3-0.1,0.6-0.2,1.3c2-0.3,3.7,0.3,5.5,0.6c1.5,0.3,2.9,0.8,3.9,1.9
			c0.4-0.4,1-0.8,1.5-1.1c2.1-1.2,2.6-3,3.4-5c2-5.2,4.6-10.1,7.2-15c1.2-2.2,3.7-2.8,6-3.3c2.4-0.5,3.7-1.5,4.8-4
			c1.7-3.9,3.7-7.7,5.7-11.4c1.6-2.9,4-4.2,6.8-4.5c3.3-0.4,6.2-1.6,9-3.1c2-1.1,3.9-2.4,6.3-2.3c1.1,0,1.5-0.6,1.7-1.7
			c0.2-1-0.1-2.2,1.3-3.3c1.3-0.3,3.1,1.1,4.7-0.7c1.6-1.8,1.8-3.5,0.2-5c-1.3-1.2-1.7-2.4-1.6-4.1c0.1-2.9-2.1-3.7-4.3-3.9
			c-2.6-0.3-4.4-1.5-6-3.4c-1.7-1.9-3-1.9-4.3,0.3c-1.2,2.2-2.5,3.9-5.4,3.7c-1.6-0.1-2.4,1.7-3.3,3.1c-2-1.3-3.6-1.1-4.4,1.4
			c-1.8-0.7-2.9-2.4-4.9-1c-1.9,1.4-2,3.3-1.5,5c0.5,2,0,3.5-1.4,4.7c-4,3.3-7.7,6.9-13.3,7.5c-2.8,0.3-5.4,2.2-7.3,4.5
			c-3.4,4.2-8.8,5.9-12.4,9.9c-1.1,1.2-3.3,1.4-5.2,1.5c-2.8,0.1-5.7-0.5-8.3,0.7C217.4,82.5,217.2,83.6,216.8,84.6z"/>
		<path class="st0" d="M175.1,91c4,6.1,3.3,12.4,0.3,18.6c-1.3,2.7-3.2,5.1-4.2,7.9c-0.3,0.8-0.7,1.6-0.9,2.5
			c-0.4,1.2-0.1,2.2,1.2,2.6c0.8,0.3,1.6,0.7,2.3,1.3c1.5,1.7,1.6,3.2,0,4.9c-0.8,0.9-1.1,1.5-0.4,2.6c1.8,2.9,2.3,6.2,2.6,9.5
			c0.2,1.8,0.7,3.1,2.3,4.1c1.6,1,2.9,2.4,3.7,4.2c0.8,1.8,2,2.5,3.9,2.5c0.5,0,1.4-0.2,1.6,0.1c2.3,2.7,6.2,2.8,8.6,5.4
			c0.5,0.6,1,1.2,1.7,1.6c1.5,0.9,3.4-0.2,4.8,0.9c1.2,1,2.6,1.6,4.4,1.6c-0.7-1.6-1-3.1-1.3-4.6c-0.1-0.5-0.2-1.3-0.5-1.5
			c-2.3-1.2-2.5-3.3-3-5.5c-0.3-1.6-1.7-2.6-3.2-3.1c-1.3-0.5-2.2-1.2-2-2.7c0.2-1.3,1-1.9,2.2-2.6c2.7-1.5,5.2-2.1,8.2-0.9
			c1.2,0.5,1.9,0,1.8-1.5c-0.1-1.8-0.8-3.3-2-4.5c-2.7-2.5-4.3-6-7.2-8.2c-1.4-1-1.1-2.5-0.8-4c1.2-5.8,5.2-8.9,10.4-10.6
			c2.3-0.7,3.5-1.9,4.1-4.1c0.3-1.4,1.3-2.5,2-3.8c0.7-1.3,1-2.5-0.7-3.3c-1.4-0.7-1.5-1.9-1-3.1c0.6-1.2,0.4-2.2,0.1-3.5
			c-0.8-2.8-0.2-5.8,0.5-8.5c0.2-0.8,0.4-1.6,0.6-2.4c-1.2,0.2-2.8-0.8-3.7-1.7c-1.7-1.5-3.4-1.7-5-0.5c-1.9,1.4-2.9,0-4-0.8
			c-3.9-2.7-5.7-0.6-6.2,3c-0.3,2.1-0.8,4-2.1,5.7c-1,1.3-2.1,2-3.7,2c-1,0-2.1,0-3,0.4c-4.5,2.1-8-1-11.6-2.5
			c-0.8-0.3-1.4-0.5-2-0.5C173.9,89.1,174.4,90.1,175.1,91z"/>
	</g>
</g>
</svg>
